<?xml version="1.0" encoding="UTF-8" standalone="yes"?>
<svg version="1.2" width="400" height="400" viewBox="0 0 400 400" baseProfile="tiny-ps" xmlns="http://www.w3.org/2000/svg">
  <title>bimi-svg-tiny-12-ps</title>
  <g id="svgg">
    <path id="path0" d="M288.872 85.054 C 285.263 85.926,279.152 89.249,267.008 96.946 C 263.750 99.011,257.855 102.687,253.907 105.115 C 249.960 107.544,244.179 111.154,241.060 113.139 C 237.941 115.123,235.070 116.744,234.680 116.741 C 233.185 116.728,226.245 115.320,211.005 111.936 C 207.529 111.164,195.415 108.616,191.829 107.902 L 189.241 107.387 183.922 110.513 C 180.996 112.233,178.651 113.784,178.710 113.961 C 178.769 114.137,180.318 115.139,182.152 116.186 C 186.595 118.724,195.190 123.814,199.473 126.446 C 210.631 133.300,210.716 133.489,204.574 137.792 C 200.215 140.846,196.878 143.135,196.191 143.542 C 195.809 143.767,195.929 144.239,196.891 146.309 C 199.931 152.848,200.081 155.246,199.919 194.896 C 199.801 223.555,199.735 226.867,199.237 229.027 C 197.343 237.241,192.267 241.311,182.737 242.256 L 180.626 242.466 180.428 244.120 C 179.820 249.174,180.157 249.793,184.425 251.475 C 197.193 256.505,211.130 252.224,216.489 241.627 C 220.158 234.372,220.205 233.815,220.232 197.289 L 220.255 166.348 210.236 166.188 L 200.218 166.029 203.378 164.090 C 205.117 163.023,210.511 159.650,215.365 156.594 C 220.219 153.537,224.597 150.805,225.094 150.521 C 225.590 150.238,229.872 147.529,234.609 144.502 C 243.068 139.096,250.802 134.227,260.606 128.137 C 265.775 124.926,268.442 123.125,284.298 112.139 C 301.898 99.944,305.901 95.806,305.901 89.806 C 305.901 85.743,296.675 83.169,288.872 85.054 M75.129 143.411 C 62.775 181.377,56.521 200.293,51.517 214.833 C 46.676 228.897,45.732 231.619,45.453 232.300 C 45.236 232.832,45.882 232.858,57.447 232.779 L 69.670 232.695 71.500 226.794 C 72.507 223.549,73.876 219.242,74.544 217.225 L 75.758 213.557 92.784 213.557 L 109.810 213.557 112.789 222.169 C 114.427 226.906,115.857 231.180,115.965 231.667 L 116.163 232.552 145.880 232.464 L 175.598 232.376 178.309 231.465 C 202.794 223.237,204.121 189.795,180.273 181.986 L 178.568 181.428 181.829 179.822 C 189.152 176.217,192.760 170.546,193.447 161.563 C 194.462 148.294,186.874 138.071,173.175 134.251 L 170.494 133.504 146.358 133.409 L 122.222 133.314 122.732 134.998 C 123.177 136.466,123.254 139.740,123.328 160.447 L 123.414 184.211 122.142 180.383 C 119.792 173.313,117.146 165.146,113.565 153.907 C 106.312 131.147,107.753 132.472,89.906 132.154 L 78.856 131.957 75.129 143.411 M164.863 153.555 C 171.961 155.865,173.609 166.434,167.592 171.058 C 165.024 173.031,163.969 173.206,154.647 173.206 L 146.411 173.206 146.411 162.971 L 146.411 152.736 154.785 152.868 C 161.612 152.976,163.473 153.103,164.863 153.555 M93.432 161.085 C 93.827 162.515,96.748 171.599,101.477 186.108 C 102.846 190.310,103.921 193.793,103.866 193.848 C 103.811 193.903,98.808 193.910,92.747 193.864 L 81.728 193.780 84.209 185.965 C 85.573 181.667,87.296 176.212,88.036 173.844 C 88.777 171.475,89.999 167.652,90.751 165.348 C 91.503 163.044,92.219 160.697,92.343 160.133 C 92.613 158.907,92.898 159.156,93.432 161.085 M316.587 163.464 C 294.638 167.478,282.182 189.195,289.441 210.794 C 296.465 231.693,322.385 240.637,339.908 228.208 C 344.696 224.812,350.209 217.022,348.259 216.408 C 347.857 216.281,344.666 214.905,341.168 213.349 C 337.669 211.793,334.716 210.629,334.604 210.762 C 334.492 210.896,333.866 211.753,333.211 212.667 C 325.626 223.263,308.931 218.399,306.428 204.864 L 306.236 203.828 328.317 203.823 C 341.644 203.820,350.588 203.698,350.877 203.516 C 351.531 203.104,351.714 196.215,351.191 191.707 C 349.338 175.736,338.467 164.348,324.083 163.310 C 319.244 162.961,319.354 162.958,316.587 163.464 M251.356 163.510 C 227.487 167.856,215.463 193.680,226.789 216.272 C 237.829 238.292,272.691 239.915,283.646 218.919 C 284.212 217.834,284.607 216.886,284.523 216.813 C 284.439 216.740,282.594 215.929,280.423 215.010 C 278.253 214.092,275.113 212.707,273.446 211.933 C 269.829 210.255,269.731 210.245,269.196 211.538 C 266.645 217.697,256.235 220.480,249.371 216.838 C 245.357 214.708,241.524 208.588,241.472 204.226 C 241.468 203.911,246.066 203.827,263.397 203.823 C 275.459 203.820,285.523 203.694,285.762 203.542 C 286.592 203.017,286.079 190.328,285.075 186.537 C 282.169 175.570,274.731 167.483,264.593 164.269 C 262.411 163.577,253.723 163.079,251.356 163.510 M261.649 179.677 C 264.237 180.957,265.669 182.378,266.969 184.958 C 267.679 186.367,268.643 190.580,268.328 190.896 C 268.233 190.991,262.222 191.069,254.971 191.069 C 239.900 191.069,241.279 191.426,242.544 187.845 C 245.424 179.686,254.137 175.961,261.649 179.677 M325.031 178.815 C 328.029 179.705,330.894 182.102,332.333 184.924 C 332.993 186.217,333.992 190.400,333.746 190.836 C 333.558 191.167,307.242 191.112,307.036 190.780 C 306.764 190.340,307.975 186.451,308.845 184.969 C 311.994 179.606,318.879 176.988,325.031 178.815 M165.842 192.517 C 177.925 195.365,178.590 210.839,166.798 214.748 C 164.950 215.361,163.869 215.439,155.582 215.557 L 146.411 215.688 146.411 203.857 L 146.411 192.026 155.104 192.030 C 161.732 192.034,164.282 192.149,165.842 192.517 M110.367 240.842 C 88.137 242.988,71.830 249.993,59.171 262.835 L 56.938 265.100 58.692 264.333 C 60.285 263.636,67.545 261.316,73.206 259.695 C 100.825 251.786,129.377 255.453,163.477 271.290 C 170.035 274.336,172.134 275.265,178.628 277.997 C 195.818 285.229,211.070 289.523,226.794 291.559 C 253.170 294.974,282.145 288.394,302.916 274.274 C 305.732 272.359,313.238 266.259,313.238 265.884 C 313.238 265.810,311.885 266.391,310.231 267.174 C 304.770 269.761,295.507 272.702,287.256 274.469 C 257.492 280.840,224.693 275.074,180.383 255.680 C 160.673 247.053,148.764 243.490,132.855 241.460 C 126.989 240.712,115.104 240.385,110.367 240.842 M331.015 243.444 C 325.194 246.365,314.074 246.662,297.448 244.340 C 277.728 241.587,258.180 242.869,240.829 248.054 C 237.343 249.096,228.271 252.454,227.592 252.955 C 226.245 253.948,214.912 258.373,213.717 258.373 C 207.930 258.373,232.991 265.200,244.657 266.802 C 253.657 268.037,254.597 268.098,264.912 268.100 C 289.861 268.105,309.248 262.321,325.199 250.112 C 328.118 247.878,334.212 241.876,332.956 242.472 C 332.901 242.499,332.027 242.936,331.015 243.444 M97.687 264.818 C 93.551 265.162,93.042 265.368,94.976 265.918 C 95.634 266.105,100.694 267.724,106.220 269.517 C 150.338 283.827,160.666 286.275,184.211 287.997 C 188.161 288.286,188.547 288.239,186.555 287.714 C 184.641 287.209,169.680 281.251,161.563 277.761 C 134.939 266.314,118.859 263.056,97.687 264.818 M97.289 305.901 L 97.289 308.453 101.116 308.453 L 104.944 308.453 104.944 318.979 L 104.944 329.506 107.815 329.506 L 110.686 329.506 110.686 318.979 L 110.686 308.453 114.514 308.453 L 118.341 308.453 118.341 305.901 L 118.341 303.349 107.815 303.349 L 97.289 303.349 97.289 305.901 M133.971 316.427 L 133.971 329.506 136.842 329.506 L 139.713 329.506 139.713 324.880 L 139.713 320.255 141.388 320.262 L 143.062 320.268 146.093 324.880 L 149.123 329.492 152.404 329.499 L 155.684 329.506 155.302 328.788 C 155.091 328.393,153.688 326.204,152.182 323.923 C 150.677 321.643,149.401 319.681,149.346 319.565 C 149.292 319.448,149.558 319.254,149.938 319.133 C 155.018 317.521,155.976 308.531,151.420 305.231 C 149.193 303.618,147.628 303.349,140.452 303.349 L 133.971 303.349 133.971 316.427 M177.780 308.366 C 171.624 324.123,169.697 329.115,169.697 329.300 C 169.697 329.413,171.031 329.506,172.661 329.506 L 175.625 329.506 176.567 326.787 L 177.509 324.069 182.901 324.155 L 188.294 324.242 188.723 325.518 C 188.960 326.220,189.381 327.404,189.659 328.150 L 190.164 329.506 193.202 329.506 C 195.508 329.506,196.201 329.409,196.075 329.107 C 195.984 328.888,194.468 324.976,192.706 320.415 C 190.944 315.853,188.737 310.183,187.803 307.815 L 186.104 303.509 182.924 303.422 L 179.745 303.335 177.780 308.366 M206.061 303.617 C 206.061 303.765,207.365 307.317,208.959 311.512 C 210.554 315.707,212.405 320.646,213.074 322.488 C 213.743 324.330,214.602 326.663,214.983 327.671 L 215.676 329.506 218.968 329.506 L 222.259 329.506 222.807 328.150 C 224.549 323.835,232.217 303.730,232.217 303.477 C 232.217 303.407,230.817 303.350,229.107 303.351 L 225.997 303.352 223.960 309.013 C 222.840 312.126,221.304 316.449,220.546 318.619 C 219.789 320.789,219.108 322.625,219.035 322.698 C 218.905 322.828,217.880 319.921,214.094 308.692 L 212.292 303.349 209.176 303.349 C 207.463 303.349,206.061 303.470,206.061 303.617 M247.847 316.427 L 247.847 329.506 257.111 329.506 L 266.375 329.506 266.281 327.033 L 266.188 324.561 259.968 324.561 L 253.748 324.561 253.656 321.611 L 253.565 318.660 258.999 318.660 L 264.434 318.660 264.434 316.276 L 264.434 313.891 259.091 313.804 L 253.748 313.716 253.655 311.091 L 253.563 308.467 259.716 308.380 L 265.869 308.293 265.962 305.821 L 266.056 303.349 256.951 303.349 L 247.847 303.349 247.847 316.427 M282.935 316.427 L 282.935 329.506 291.707 329.506 L 300.478 329.506 300.478 327.113 L 300.478 324.721 296.057 324.721 C 293.626 324.721,290.970 324.630,290.156 324.518 L 288.676 324.315 288.676 313.832 L 288.676 303.349 285.805 303.349 L 282.935 303.349 282.935 316.427 M146.560 308.587 C 148.391 309.352,149.103 311.425,148.160 313.248 C 147.408 314.703,146.008 315.253,142.663 315.409 L 139.713 315.547 139.713 311.840 L 139.713 308.134 142.594 308.134 C 144.362 308.134,145.894 308.309,146.560 308.587 M184.155 312.924 C 184.761 314.588,185.558 316.703,185.925 317.624 L 186.594 319.298 183.089 319.298 C 179.040 319.298,179.165 319.443,180.413 316.192 C 181.285 313.922,182.261 311.258,182.593 310.241 C 182.862 309.418,182.901 309.485,184.155 312.924 " stroke="none" fill="#07495b" fill-rule="evenodd"/>
    <path id="path1" d="M0.000 200.000 L 0.000 400.000 200.000 400.000 L 400.000 400.000 400.000 200.000 L 400.000 0.000 200.000 0.000 L 0.000 0.000 0.000 200.000 M210.367 73.967 C 228.642 77.088,243.353 85.743,256.999 101.402 L 257.943 102.486 264.139 98.577 C 267.547 96.427,271.196 94.126,272.249 93.464 C 284.110 86.001,287.763 84.530,294.424 84.530 C 311.678 84.530,310.068 94.351,290.590 107.906 C 288.046 109.676,281.946 113.915,277.033 117.326 C 272.121 120.736,268.065 123.558,268.019 123.596 C 267.973 123.633,268.160 124.297,268.435 125.070 C 271.363 133.321,272.470 144.760,271.303 154.707 C 270.870 158.396,269.676 165.068,269.356 165.585 C 269.280 165.708,269.900 166.205,270.734 166.689 C 279.142 171.572,284.903 180.883,286.113 191.547 C 286.575 195.622,286.543 202.963,286.061 203.445 C 285.770 203.735,280.347 203.828,263.604 203.828 L 241.530 203.828 242.002 205.981 C 244.971 219.526,261.542 223.175,268.800 211.882 C 270.056 209.928,269.802 210.008,271.701 210.969 C 272.529 211.388,275.789 212.842,278.947 214.200 C 282.105 215.558,284.735 216.708,284.790 216.756 C 284.846 216.804,284.503 217.610,284.028 218.549 C 273.055 240.245,237.805 238.734,226.526 216.084 C 223.835 210.679,221.166 199.169,221.021 192.344 C 220.876 185.476,220.576 190.088,220.585 199.059 C 220.615 229.437,220.080 235.085,216.530 241.865 C 210.670 253.057,195.375 257.083,182.560 250.808 C 180.109 249.608,180.057 249.501,180.144 245.859 C 180.234 242.108,180.235 242.105,181.802 242.105 C 191.355 242.105,197.777 236.802,199.278 227.675 C 199.966 223.487,200.057 160.821,199.381 155.814 C 197.415 141.235,188.415 132.643,172.993 130.622 C 170.058 130.237,165.079 130.144,147.512 130.144 C 126.411 130.144,125.678 130.124,125.678 129.548 C 125.678 128.213,129.042 119.213,131.052 115.170 C 145.827 85.455,178.438 68.514,210.367 73.967 M102.783 132.669 C 106.496 133.829,107.985 136.205,111.161 146.036 C 112.503 150.190,113.795 154.163,114.031 154.864 C 114.268 155.566,115.490 159.370,116.746 163.317 C 118.002 167.265,119.987 173.437,121.157 177.033 L 123.285 183.573 123.207 161.244 C 123.136 140.852,123.018 137.337,122.286 133.912 L 122.103 133.056 141.514 133.096 C 172.654 133.160,174.577 133.379,181.833 137.698 C 195.589 145.887,197.957 167.483,186.174 177.285 C 184.479 178.695,179.913 181.175,178.990 181.187 C 178.703 181.191,179.431 181.533,180.606 181.948 C 203.465 190.016,202.950 222.831,179.834 231.093 C 174.999 232.821,174.304 232.855,144.076 232.854 L 116.268 232.852 114.919 228.946 C 114.177 226.798,112.689 222.491,111.612 219.375 L 109.655 213.711 92.733 213.793 L 75.811 213.876 75.004 216.268 C 74.560 217.584,73.178 221.890,71.934 225.837 L 69.672 233.014 57.404 233.014 C 49.398 233.014,45.156 232.904,45.195 232.695 C 45.228 232.520,47.128 226.994,49.417 220.415 C 53.989 207.278,66.916 168.337,74.070 146.149 L 78.628 132.010 90.112 132.154 C 97.554 132.247,102.013 132.428,102.783 132.669 M146.487 162.993 L 146.571 172.875 150.652 173.001 C 166.457 173.488,170.546 171.629,170.903 163.796 C 171.288 155.331,167.908 153.110,154.638 153.110 L 146.402 153.110 146.487 162.993 M92.444 160.287 C 92.356 160.813,91.314 164.258,90.129 167.943 C 88.944 171.627,87.570 175.933,87.076 177.512 C 86.582 179.091,85.233 183.368,84.078 187.017 C 82.923 190.666,81.978 193.716,81.978 193.795 C 81.978 193.874,86.858 193.939,92.823 193.939 C 98.788 193.939,103.668 193.843,103.668 193.725 C 103.668 193.607,101.225 185.964,98.239 176.739 C 95.253 167.515,92.763 159.825,92.707 159.649 C 92.651 159.474,92.533 159.761,92.444 160.287 M327.525 163.504 C 339.579 165.984,348.640 176.022,351.105 189.628 C 351.789 193.404,351.877 202.529,351.237 203.300 C 350.837 203.782,348.864 203.828,328.655 203.828 L 306.510 203.828 306.722 205.024 C 308.291 213.904,315.572 219.264,324.230 217.912 C 328.212 217.290,332.693 214.256,334.059 211.258 C 334.522 210.243,334.286 210.175,342.192 213.627 C 347.711 216.037,349.256 216.838,349.116 217.216 C 348.474 218.959,345.565 223.131,343.541 225.214 C 327.251 241.973,296.474 233.684,289.188 210.576 C 280.905 184.307,302.107 158.275,327.525 163.504 M253.589 178.535 C 247.827 179.535,243.874 183.348,242.167 189.553 L 241.838 190.750 255.091 190.750 L 268.344 190.750 268.128 189.075 C 267.238 182.164,260.562 177.324,253.589 178.535 M317.703 178.726 C 312.218 179.988,307.177 185.530,307.177 190.300 C 307.177 190.680,309.237 190.750,320.451 190.750 L 333.725 190.750 333.499 189.247 C 332.349 181.577,325.408 176.954,317.703 178.726 M146.649 192.213 C 146.519 192.344,146.411 197.594,146.411 203.881 L 146.411 215.311 155.104 215.306 C 161.652 215.303,164.290 215.185,165.800 214.829 C 177.693 212.025,178.388 196.769,166.798 192.904 C 164.684 192.199,147.261 191.601,146.649 192.213 M130.622 241.012 C 146.769 242.671,159.611 246.427,180.738 255.671 C 225.801 275.388,258.384 280.892,289.155 273.984 C 295.112 272.646,306.260 268.956,310.212 267.014 C 314.070 265.117,314.246 265.182,311.645 267.544 C 290.571 286.683,256.490 296.088,224.721 291.531 C 211.338 289.612,203.205 287.446,188.198 281.807 C 176.692 277.483,175.503 276.989,165.212 272.252 C 153.982 267.082,155.068 267.565,151.196 266.025 C 126.081 256.035,102.089 253.416,79.904 258.241 C 73.102 259.721,60.698 263.395,58.264 264.651 C 54.021 266.840,63.532 258.119,70.494 253.435 C 85.896 243.074,107.413 238.629,130.622 241.012 M333.333 242.447 C 333.333 243.119,326.671 249.325,323.573 251.538 C 297.182 270.392,257.560 273.753,217.464 260.539 C 212.807 259.004,211.524 258.373,213.060 258.373 C 214.164 258.373,219.396 256.471,223.706 254.502 C 247.956 243.426,268.144 240.622,297.927 244.194 C 315.400 246.289,325.358 246.004,330.781 243.256 C 333.187 242.037,333.333 241.990,333.333 242.447 M121.330 265.062 C 133.886 266.864,146.525 270.851,163.317 278.307 C 168.068 280.416,184.493 286.914,186.687 287.552 C 187.719 287.852,188.439 288.225,188.329 288.403 C 188.221 288.577,187.917 288.637,187.654 288.536 C 187.390 288.434,184.831 288.210,181.967 288.038 C 162.691 286.875,149.298 283.669,108.453 270.439 C 105.207 269.388,101.260 268.116,99.681 267.614 C 93.317 265.587,92.300 265.126,94.019 265.046 C 94.326 265.031,96.443 264.824,98.724 264.586 C 104.645 263.967,115.254 264.190,121.330 265.062 M118.593 305.821 L 118.686 308.453 114.845 308.453 L 111.005 308.453 111.005 319.150 L 111.005 329.848 107.895 329.756 L 104.785 329.665 104.701 319.059 L 104.617 308.453 100.793 308.453 L 96.970 308.453 96.970 305.954 C 96.970 302.730,95.890 303.010,107.952 303.106 L 118.501 303.190 118.593 305.821 M147.008 303.365 C 150.499 303.931,152.626 305.431,153.931 308.247 C 155.765 312.206,153.584 318.288,150.007 319.186 C 149.281 319.368,149.281 319.371,150.349 320.848 C 151.687 322.699,155.981 329.407,155.981 329.647 C 155.981 329.745,154.438 329.823,152.552 329.821 L 149.123 329.817 145.985 325.036 L 142.847 320.255 141.448 320.255 L 140.049 320.255 139.961 324.960 L 139.872 329.665 136.922 329.757 L 133.971 329.849 133.971 316.439 L 133.971 303.030 139.474 303.033 C 142.500 303.034,145.891 303.184,147.008 303.365 M186.248 303.602 C 186.416 303.916,188.292 308.689,190.416 314.208 C 192.541 319.727,194.765 325.436,195.360 326.894 C 196.623 329.994,196.718 329.886,192.826 329.758 L 190.008 329.665 189.023 326.875 L 188.038 324.085 182.881 324.084 L 177.724 324.083 176.697 326.954 L 175.670 329.825 172.524 329.825 C 170.794 329.825,169.378 329.733,169.378 329.620 C 169.378 329.414,172.090 322.371,176.792 310.367 C 178.201 306.770,179.495 303.648,179.668 303.429 C 180.212 302.740,185.866 302.888,186.248 303.602 M214.000 307.895 C 214.899 310.570,216.398 314.954,217.329 317.636 L 219.022 322.513 221.659 315.084 C 225.642 303.864,225.719 303.659,226.058 303.320 C 226.602 302.776,232.387 303.097,232.324 303.668 C 232.269 304.173,229.399 311.766,225.033 322.958 L 222.416 329.665 218.987 329.665 L 215.558 329.665 213.261 323.445 C 211.997 320.024,209.789 314.119,208.353 310.324 C 206.917 306.528,205.742 303.335,205.742 303.227 C 205.742 303.119,207.232 303.030,209.053 303.030 L 212.364 303.030 214.000 307.895 M266.029 305.742 L 266.029 308.453 259.968 308.453 L 253.907 308.453 253.907 311.005 L 253.907 313.557 259.171 313.557 L 264.434 313.557 264.434 316.108 L 264.434 318.660 259.171 318.660 L 253.907 318.660 253.907 321.531 L 253.907 324.402 260.128 324.402 L 266.348 324.402 266.348 327.113 L 266.348 329.825 257.097 329.825 L 247.847 329.825 247.847 316.640 C 247.847 309.389,247.943 303.360,248.060 303.243 C 248.177 303.126,252.267 303.030,257.150 303.030 L 266.029 303.030 266.029 305.742 M288.676 313.709 L 288.676 324.388 294.608 324.475 L 300.540 324.561 300.589 327.113 L 300.638 329.665 291.627 329.750 L 282.616 329.834 282.616 316.645 C 282.616 309.391,282.711 303.360,282.828 303.243 C 282.945 303.126,284.309 303.030,285.859 303.030 L 288.676 303.030 288.676 313.709 M140.032 311.643 L 140.032 315.152 142.594 315.152 C 146.607 315.152,148.325 314.084,148.325 311.590 C 148.325 309.191,146.484 308.157,142.185 308.142 L 140.032 308.134 140.032 311.643 M181.273 314.411 L 179.668 318.820 181.393 318.916 C 182.341 318.969,183.805 318.969,184.644 318.916 L 186.171 318.820 184.524 314.411 L 182.877 310.002 181.273 314.411 " stroke="none" fill="#fbf3e9" fill-rule="evenodd"/>
    <path id="path2" d="M191.069 73.367 C 189.928 73.515,188.278 73.718,187.400 73.818 C 185.548 74.030,182.511 74.597,181.818 74.861 C 181.555 74.962,180.963 75.094,180.502 75.155 C 180.041 75.215,179.251 75.431,178.747 75.634 C 178.243 75.837,177.485 76.048,177.062 76.103 C 176.640 76.158,176.209 76.325,176.105 76.474 C 176.002 76.623,175.571 76.767,175.148 76.794 C 174.726 76.820,174.282 77.000,174.163 77.193 C 174.043 77.386,173.636 77.567,173.257 77.596 C 172.878 77.624,172.568 77.776,172.568 77.933 C 172.568 78.090,172.369 78.142,172.126 78.049 C 171.883 77.955,171.399 78.078,171.051 78.322 C 170.703 78.566,170.328 78.675,170.217 78.564 C 170.107 78.453,170.016 78.530,170.016 78.735 C 170.016 78.939,169.908 79.083,169.777 79.055 C 169.255 78.940,167.783 79.515,167.783 79.833 C 167.783 80.018,167.694 80.081,167.584 79.971 C 167.354 79.741,165.054 80.852,164.752 81.340 C 164.641 81.521,164.416 81.587,164.252 81.486 C 164.089 81.385,163.955 81.463,163.955 81.659 C 163.955 81.855,163.812 81.927,163.636 81.818 C 163.461 81.710,163.317 81.782,163.317 81.978 C 163.317 82.174,163.174 82.246,162.998 82.137 C 162.823 82.029,162.679 82.101,162.679 82.297 C 162.679 82.493,162.551 82.574,162.394 82.477 C 162.237 82.380,162.021 82.527,161.915 82.803 C 161.809 83.080,161.557 83.251,161.354 83.184 C 161.152 83.117,160.649 83.400,160.235 83.813 C 159.822 84.226,159.357 84.485,159.201 84.389 C 159.046 84.293,158.828 84.449,158.718 84.736 C 158.608 85.024,158.428 85.169,158.317 85.059 C 158.207 84.948,157.913 85.107,157.663 85.412 C 157.363 85.777,157.281 85.803,157.420 85.486 C 157.536 85.223,157.335 85.367,156.973 85.805 C 156.610 86.244,156.306 86.459,156.297 86.284 C 156.288 86.108,156.132 86.219,155.952 86.530 C 155.771 86.841,155.503 87.021,155.356 86.930 C 155.209 86.839,154.608 87.225,154.020 87.787 C 153.432 88.350,152.843 88.816,152.711 88.823 C 152.580 88.830,152.508 88.941,152.552 89.069 C 152.646 89.345,151.137 90.458,150.810 90.353 C 150.686 90.313,150.203 90.779,149.738 91.389 C 149.273 91.999,148.784 92.431,148.651 92.349 C 148.359 92.168,147.297 93.283,147.535 93.521 C 147.627 93.613,147.484 93.871,147.217 94.092 C 146.949 94.314,146.730 94.384,146.730 94.248 C 146.730 94.112,146.447 94.257,146.100 94.571 C 145.753 94.884,145.560 95.288,145.671 95.467 C 145.782 95.646,145.738 95.709,145.573 95.608 C 145.409 95.506,144.489 96.235,143.530 97.228 C 142.571 98.221,142.155 98.748,142.605 98.400 C 143.056 98.052,142.769 98.403,141.967 99.180 C 141.166 99.958,140.797 100.409,141.148 100.182 C 141.499 99.956,141.140 100.377,140.351 101.118 C 139.561 101.860,139.131 102.367,139.394 102.246 C 139.657 102.125,139.477 102.336,138.994 102.715 C 138.510 103.095,138.196 103.536,138.295 103.696 C 138.394 103.856,138.314 103.987,138.118 103.987 C 137.922 103.987,137.852 104.134,137.963 104.314 C 138.075 104.494,138.047 104.602,137.902 104.553 C 137.758 104.505,137.616 104.593,137.587 104.749 C 137.558 104.905,137.343 105.151,137.109 105.296 C 136.874 105.440,136.683 105.713,136.683 105.901 C 136.683 106.089,136.467 106.379,136.204 106.546 C 135.941 106.712,135.861 106.850,136.026 106.853 C 136.191 106.856,136.047 107.084,135.707 107.360 C 135.366 107.636,135.282 107.762,135.520 107.640 C 135.815 107.488,135.778 107.682,135.403 108.254 C 135.102 108.714,134.719 109.091,134.554 109.091 C 134.388 109.091,134.338 109.229,134.443 109.398 C 134.547 109.567,134.376 109.974,134.063 110.302 C 133.749 110.630,133.449 111.102,133.396 111.350 C 133.342 111.599,133.093 111.960,132.842 112.153 C 132.592 112.346,132.480 112.597,132.594 112.711 C 132.708 112.825,132.626 112.919,132.411 112.919 C 132.196 112.919,132.108 113.062,132.217 113.238 C 132.325 113.413,132.262 113.557,132.076 113.557 C 131.890 113.557,131.773 113.664,131.814 113.796 C 131.942 114.199,131.042 116.108,130.724 116.108 C 130.559 116.108,130.514 116.252,130.622 116.427 C 130.730 116.603,130.659 116.746,130.463 116.746 C 130.266 116.746,130.195 116.890,130.303 117.065 C 130.411 117.241,130.340 117.384,130.144 117.384 C 129.947 117.384,129.876 117.528,129.984 117.703 C 130.092 117.879,130.034 118.022,129.853 118.022 C 129.673 118.022,129.601 118.219,129.693 118.460 C 129.786 118.700,129.627 119.131,129.342 119.417 C 129.056 119.702,128.940 119.938,129.084 119.941 C 129.228 119.944,129.197 120.051,129.015 120.180 C 128.559 120.503,127.569 123.151,127.778 123.489 C 127.872 123.640,127.781 123.764,127.576 123.764 C 127.372 123.764,127.287 123.979,127.388 124.242 C 127.489 124.506,127.417 124.721,127.229 124.721 C 127.040 124.721,126.966 124.932,127.065 125.189 C 127.164 125.447,127.114 125.738,126.954 125.837 C 126.794 125.936,126.743 126.228,126.842 126.485 C 126.941 126.743,126.877 126.954,126.699 126.954 C 126.521 126.954,126.456 127.263,126.555 127.642 C 126.686 128.142,126.626 128.262,126.332 128.080 C 126.031 127.894,125.987 128.014,126.156 128.549 C 126.312 129.038,126.272 129.197,126.031 129.048 C 125.530 128.739,125.591 129.356,126.103 129.781 C 126.405 130.031,132.929 130.134,148.560 130.137 C 160.678 130.139,170.786 130.212,171.022 130.300 C 171.454 130.461,175.298 130.798,176.635 130.792 C 177.030 130.790,177.352 130.946,177.352 131.138 C 177.352 131.330,177.563 131.407,177.821 131.308 C 178.078 131.209,178.380 131.275,178.491 131.455 C 178.602 131.635,178.894 131.705,179.139 131.611 C 179.385 131.517,179.585 131.594,179.585 131.783 C 179.585 131.971,179.801 132.043,180.064 131.942 C 180.327 131.841,180.542 131.913,180.542 132.102 C 180.542 132.290,180.758 132.362,181.021 132.261 C 181.284 132.160,181.499 132.188,181.499 132.322 C 181.499 132.568,183.613 133.476,184.211 133.487 C 184.386 133.490,184.802 133.739,185.136 134.040 C 185.470 134.341,185.864 134.512,186.013 134.420 C 186.162 134.328,186.284 134.413,186.284 134.609 C 186.284 134.805,186.428 134.877,186.605 134.767 C 186.782 134.658,187.012 134.792,187.117 135.066 C 187.222 135.339,187.437 135.482,187.595 135.385 C 187.754 135.287,187.969 135.430,188.074 135.704 C 188.179 135.977,188.377 136.131,188.515 136.046 C 188.653 135.960,189.003 136.253,189.293 136.696 C 189.583 137.138,189.935 137.430,190.075 137.343 C 190.215 137.257,190.646 137.615,191.034 138.139 C 191.448 138.700,191.896 139.002,192.121 138.873 C 192.332 138.752,192.401 138.767,192.276 138.906 C 192.088 139.115,193.780 141.382,195.448 143.156 C 195.824 143.556,200.326 140.726,206.619 136.131 C 208.394 134.834,208.840 133.503,207.895 132.317 C 207.019 131.218,193.956 123.140,182.695 116.735 C 177.438 113.744,177.609 113.913,179.027 113.098 C 179.597 112.770,182.127 111.284,184.649 109.795 L 189.235 107.089 196.611 108.609 C 200.668 109.446,208.762 111.183,214.598 112.471 C 227.028 115.213,233.124 116.427,234.454 116.427 C 235.136 116.427,237.502 115.111,242.666 111.859 C 246.656 109.346,251.594 106.258,253.639 104.997 C 257.148 102.834,257.724 102.230,256.949 101.524 C 256.799 101.388,256.792 101.491,256.933 101.754 C 257.220 102.286,257.034 102.102,255.817 100.648 C 255.185 99.893,255.154 99.786,255.662 100.123 C 256.013 100.356,255.080 99.356,253.589 97.900 C 252.097 96.445,251.164 95.454,251.515 95.699 C 251.866 95.944,251.664 95.618,251.066 94.975 C 250.468 94.331,249.865 93.875,249.726 93.961 C 249.588 94.046,249.152 93.681,248.759 93.149 C 247.981 92.097,244.671 89.189,245.128 89.959 C 245.282 90.218,244.803 89.815,244.064 89.063 C 243.325 88.311,242.610 87.764,242.474 87.848 C 242.338 87.932,241.828 87.578,241.340 87.061 C 240.853 86.544,240.330 86.198,240.179 86.291 C 240.028 86.385,239.746 86.166,239.553 85.805 C 239.360 85.445,239.081 85.225,238.933 85.316 C 238.785 85.408,238.582 85.271,238.483 85.012 C 238.383 84.752,238.096 84.619,237.844 84.716 C 237.591 84.813,237.181 84.598,236.926 84.234 C 236.673 83.872,236.371 83.671,236.255 83.787 C 236.139 83.903,236.045 83.822,236.045 83.607 C 236.045 83.392,235.906 83.301,235.737 83.406 C 235.568 83.510,235.150 83.315,234.807 82.973 C 234.464 82.630,234.100 82.434,233.998 82.536 C 233.896 82.638,233.812 82.558,233.812 82.358 C 233.812 81.920,232.062 80.963,231.779 81.246 C 231.669 81.356,231.579 81.270,231.579 81.055 C 231.579 80.840,231.435 80.753,231.260 80.861 C 231.085 80.970,230.941 80.882,230.941 80.667 C 230.941 80.452,230.850 80.368,230.738 80.480 C 230.626 80.591,230.159 80.419,229.701 80.096 C 228.652 79.358,227.501 78.938,226.217 78.825 C 225.988 78.804,225.888 78.644,225.997 78.469 C 226.182 78.170,225.545 78.009,224.641 78.126 C 224.422 78.155,224.242 78.028,224.242 77.845 C 224.242 77.662,224.135 77.529,224.003 77.550 C 223.872 77.571,223.656 77.553,223.525 77.510 C 223.393 77.467,223.178 77.402,223.046 77.366 C 222.915 77.329,222.376 77.121,221.850 76.903 C 221.324 76.685,220.606 76.488,220.255 76.466 C 219.904 76.444,219.535 76.308,219.434 76.164 C 219.333 76.019,218.831 75.837,218.317 75.758 C 217.195 75.586,216.831 75.501,215.064 75.000 C 214.315 74.787,213.573 74.692,213.417 74.788 C 213.261 74.885,213.084 74.829,213.026 74.665 C 212.674 73.679,196.172 72.704,191.069 73.367 M266.029 124.927 C 265.415 125.357,263.046 126.872,260.766 128.293 C 258.485 129.715,253.963 132.533,250.718 134.556 C 247.472 136.579,242.879 139.475,240.510 140.992 C 234.757 144.677,226.472 149.899,218.501 154.864 C 214.904 157.105,210.239 160.043,208.134 161.394 C 206.029 162.744,203.589 164.302,202.711 164.856 L 201.116 165.862 210.567 165.865 C 218.061 165.868,220.091 165.957,220.371 166.296 C 220.614 166.587,220.725 169.831,220.726 176.583 C 220.727 187.052,221.173 196.028,221.727 196.694 C 221.911 196.916,222.035 197.571,222.003 198.150 C 221.825 201.375,222.150 200.154,222.503 196.274 C 223.779 182.239,230.263 171.951,241.308 166.436 C 249.056 162.567,259.142 161.855,266.457 164.660 C 269.213 165.717,269.541 165.641,269.711 163.905 C 269.769 163.318,269.835 162.839,269.858 162.839 C 269.946 162.839,270.253 160.891,270.293 160.078 C 270.316 159.613,270.443 159.298,270.576 159.380 C 270.708 159.462,270.810 159.054,270.802 158.473 C 270.794 157.892,270.865 156.986,270.959 156.459 C 271.689 152.371,272.091 141.416,271.531 140.856 C 271.400 140.724,271.261 139.875,271.224 138.968 C 271.099 135.927,271.044 135.583,270.717 135.785 C 270.510 135.913,270.463 135.565,270.585 134.811 C 270.712 134.032,270.663 133.707,270.441 133.845 C 270.219 133.982,270.178 133.691,270.320 132.975 C 270.487 132.129,270.455 132.001,270.168 132.376 C 269.878 132.756,269.840 132.640,269.981 131.818 C 270.088 131.198,270.026 130.781,269.827 130.781 C 269.640 130.781,269.583 130.503,269.697 130.144 C 269.808 129.793,269.760 129.506,269.589 129.506 C 269.418 129.506,269.353 129.219,269.445 128.868 C 269.545 128.486,269.455 128.230,269.222 128.230 C 269.007 128.230,268.912 128.019,269.011 127.761 C 269.110 127.504,269.060 127.212,268.900 127.113 C 268.739 127.014,268.689 126.723,268.788 126.465 C 268.887 126.208,268.800 125.997,268.596 125.997 C 268.391 125.997,268.306 125.863,268.407 125.700 C 268.508 125.537,268.451 125.317,268.281 125.211 C 268.110 125.106,268.039 124.840,268.124 124.620 C 268.387 123.934,267.198 124.108,266.029 124.927 " stroke="none" fill="#fa8c1d" fill-rule="evenodd"/>
    <path id="path3" d="M305.982 89.793 C 305.985 90.494,306.050 90.744,306.127 90.347 C 306.203 89.950,306.200 89.376,306.120 89.071 C 306.040 88.766,305.978 89.091,305.982 89.793 M251.994 96.113 C 251.994 96.167,252.460 96.634,253.030 97.149 L 254.067 98.086 253.130 97.049 C 252.257 96.083,251.994 95.866,251.994 96.113 M300.623 99.920 L 299.362 101.276 300.718 100.015 C 301.978 98.842,302.220 98.565,301.979 98.565 C 301.926 98.565,301.316 99.175,300.623 99.920 M95.614 132.288 C 96.184 132.359,97.117 132.359,97.687 132.288 C 98.258 132.217,97.791 132.160,96.651 132.160 C 95.510 132.160,95.044 132.217,95.614 132.288 M128.150 133.253 C 130.474 133.307,134.278 133.307,136.603 133.253 C 138.927 133.198,137.026 133.154,132.376 133.154 C 127.727 133.154,125.825 133.198,128.150 133.253 M147.129 133.253 C 149.366 133.308,153.026 133.308,155.263 133.253 C 157.500 133.198,155.670 133.153,151.196 133.153 C 146.722 133.153,144.892 133.198,147.129 133.253 M105.263 134.071 C 105.263 134.126,105.730 134.593,106.300 135.108 L 107.337 136.045 106.400 135.008 C 105.526 134.042,105.263 133.825,105.263 134.071 M123.126 161.148 C 123.038 173.201,123.075 182.954,123.208 182.821 C 123.341 182.688,123.413 172.827,123.367 160.907 L 123.285 139.234 123.126 161.148 M186.124 141.308 C 187.166 142.360,188.090 143.222,188.178 143.222 C 188.266 143.222,187.485 142.360,186.443 141.308 C 185.402 140.255,184.478 139.394,184.390 139.394 C 184.302 139.394,185.083 140.255,186.124 141.308 M150.159 153.029 C 152.309 153.085,155.825 153.085,157.974 153.029 C 160.124 152.974,158.365 152.929,154.067 152.929 C 149.769 152.929,148.010 152.974,150.159 153.029 M193.375 156.300 C 193.375 156.914,193.441 157.165,193.521 156.858 C 193.602 156.551,193.602 156.049,193.521 155.742 C 193.441 155.435,193.375 155.686,193.375 156.300 M199.783 162.360 C 199.783 163.501,199.841 163.967,199.912 163.397 C 199.983 162.827,199.983 161.894,199.912 161.324 C 199.841 160.754,199.783 161.220,199.783 162.360 M171.080 162.998 C 171.080 164.314,171.136 164.852,171.205 164.195 C 171.274 163.537,171.274 162.460,171.205 161.802 C 171.136 161.144,171.080 161.683,171.080 162.998 M193.382 162.520 C 193.385 163.222,193.451 163.471,193.527 163.074 C 193.603 162.678,193.600 162.103,193.521 161.799 C 193.441 161.494,193.378 161.818,193.382 162.520 M323.529 163.227 C 324.014 163.301,324.732 163.299,325.124 163.223 C 325.516 163.147,325.120 163.087,324.242 163.090 C 323.365 163.092,323.044 163.154,323.529 163.227 M333.971 165.693 C 333.971 165.781,334.402 166.076,334.928 166.348 C 335.455 166.620,335.885 166.771,335.885 166.683 C 335.885 166.595,335.455 166.301,334.928 166.029 C 334.402 165.757,333.971 165.606,333.971 165.693 M199.817 172.887 C 199.817 176.834,199.863 178.449,199.919 176.475 C 199.975 174.502,199.975 171.272,199.919 169.298 C 199.863 167.325,199.817 168.939,199.817 172.887 M276.396 171.292 C 277.437 172.344,278.361 173.206,278.449 173.206 C 278.537 173.206,277.756 172.344,276.715 171.292 C 275.673 170.239,274.749 169.378,274.661 169.378 C 274.573 169.378,275.354 170.239,276.396 171.292 M297.747 172.648 L 296.810 173.684 297.847 172.747 C 298.417 172.232,298.884 171.766,298.884 171.711 C 298.884 171.464,298.620 171.681,297.747 172.648 M148.415 173.122 C 149.253 173.188,150.545 173.187,151.286 173.120 C 152.026 173.053,151.340 172.999,149.761 173.000 C 148.182 173.001,147.576 173.056,148.415 173.122 M157.974 173.122 C 158.983 173.186,160.634 173.186,161.643 173.122 C 162.652 173.059,161.826 173.007,159.809 173.007 C 157.791 173.007,156.966 173.059,157.974 173.122 M220.489 187.400 C 220.490 187.927,220.600 188.788,220.734 189.314 C 221.071 190.641,221.086 189.335,220.752 187.719 C 220.530 186.647,220.488 186.596,220.489 187.400 M255.024 190.750 L 241.627 190.920 254.925 190.994 C 263.528 191.042,268.294 190.956,268.421 190.750 C 268.529 190.574,268.574 190.464,268.520 190.505 C 268.465 190.546,262.392 190.656,255.024 190.750 M320.734 190.750 L 307.656 190.920 320.635 190.994 C 329.025 191.042,333.684 190.956,333.812 190.750 C 333.920 190.574,333.965 190.464,333.910 190.505 C 333.856 190.546,327.927 190.656,320.734 190.750 M220.553 199.362 C 220.553 203.660,220.598 205.419,220.653 203.270 C 220.708 201.120,220.708 197.604,220.653 195.455 C 220.598 193.305,220.553 195.064,220.553 199.362 M286.254 198.246 C 286.254 201.053,286.303 202.158,286.362 200.703 C 286.421 199.247,286.421 196.950,286.361 195.599 C 286.302 194.248,286.253 195.439,286.254 198.246 M351.628 197.608 C 351.627 199.187,351.681 199.873,351.748 199.132 C 351.815 198.392,351.816 197.100,351.750 196.262 C 351.684 195.423,351.629 196.029,351.628 197.608 M287.474 201.914 C 287.474 202.528,287.540 202.779,287.620 202.472 C 287.700 202.165,287.700 201.663,287.620 201.356 C 287.540 201.049,287.474 201.300,287.474 201.914 M310.686 213.876 C 311.281 214.490,311.840 214.992,311.927 214.992 C 312.015 214.992,311.600 214.490,311.005 213.876 C 310.410 213.262,309.851 212.759,309.763 212.759 C 309.675 212.759,310.091 213.262,310.686 213.876 M75.808 213.634 C 75.726 213.767,83.279 213.837,92.592 213.790 C 105.977 213.723,109.585 213.790,109.811 214.109 C 110.026 214.413,110.064 214.395,109.966 214.035 C 109.823 213.513,76.128 213.117,75.808 213.634 M266.649 214.593 L 265.550 215.789 266.746 214.690 C 267.404 214.086,267.943 213.547,267.943 213.494 C 267.943 213.250,267.673 213.480,266.649 214.593 M331.559 214.434 L 330.622 215.470 331.659 214.534 C 332.625 213.660,332.842 213.397,332.596 213.397 C 332.541 213.397,332.074 213.864,331.559 214.434 M150.478 215.549 C 152.803 215.604,156.607 215.604,158.931 215.549 C 161.256 215.495,159.354 215.450,154.705 215.450 C 150.056 215.450,148.154 215.495,150.478 215.549 M199.803 218.979 C 199.803 221.085,199.855 221.904,199.918 220.801 C 199.980 219.698,199.979 217.975,199.916 216.973 C 199.853 215.971,199.802 216.874,199.803 218.979 M220.212 224.083 C 220.213 225.837,220.267 226.514,220.331 225.587 C 220.396 224.660,220.395 223.225,220.330 222.398 C 220.264 221.570,220.211 222.329,220.212 224.083 M232.204 224.003 C 232.986 224.837,233.668 225.518,233.719 225.518 C 233.958 225.518,233.705 225.232,232.297 223.910 L 230.781 222.488 232.204 224.003 M189.623 224.960 L 187.719 226.954 189.713 225.050 C 190.809 224.003,191.707 223.106,191.707 223.056 C 191.707 222.821,191.392 223.108,189.623 224.960 M297.448 224.242 C 298.133 224.944,298.766 225.518,298.854 225.518 C 298.941 225.518,298.452 224.944,297.767 224.242 C 297.082 223.541,296.449 222.967,296.362 222.967 C 296.274 222.967,296.763 223.541,297.448 224.242 M343.050 225.598 L 341.467 227.273 343.142 225.690 C 344.063 224.819,344.817 224.066,344.817 224.015 C 344.817 223.777,344.521 224.042,343.050 225.598 M305.263 229.822 C 305.263 230.040,307.216 231.008,307.362 230.862 C 307.431 230.793,306.987 230.498,306.376 230.206 C 305.764 229.914,305.263 229.741,305.263 229.822 M335.885 230.622 C 335.271 230.958,334.884 231.239,335.024 231.247 C 335.362 231.264,337.161 230.329,337.161 230.135 C 337.161 229.927,337.142 229.934,335.885 230.622 M45.251 232.939 C 45.385 233.072,50.796 233.144,57.277 233.098 L 69.059 233.014 57.033 232.855 C 50.419 232.767,45.117 232.805,45.251 232.939 M130.223 232.775 C 138.074 232.823,150.921 232.823,158.772 232.775 C 166.623 232.728,160.199 232.689,144.498 232.689 C 128.796 232.689,122.372 232.728,130.223 232.775 M325.439 233.713 C 325.746 233.793,326.248 233.793,326.555 233.713 C 326.862 233.632,326.611 233.567,325.997 233.567 C 325.383 233.567,325.132 233.632,325.439 233.713 M255.114 234.047 C 256.041 234.112,257.477 234.111,258.304 234.046 C 259.132 233.980,258.373 233.927,256.619 233.928 C 254.864 233.929,254.187 233.983,255.114 234.047 M321.138 234.043 C 321.711 234.114,322.573 234.113,323.052 234.040 C 323.531 233.967,323.062 233.909,322.010 233.911 C 320.957 233.912,320.565 233.972,321.138 234.043 M117.474 240.426 C 118.312 240.492,119.604 240.491,120.345 240.424 C 121.085 240.358,120.399 240.304,118.820 240.305 C 117.241 240.306,116.635 240.360,117.474 240.426 M110.766 240.739 C 111.248 240.812,112.037 240.812,112.520 240.739 C 113.002 240.666,112.608 240.606,111.643 240.606 C 110.678 240.606,110.283 240.666,110.766 240.739 M124.647 240.742 C 125.220 240.813,126.081 240.811,126.561 240.738 C 127.040 240.666,126.571 240.607,125.518 240.609 C 124.466 240.611,124.074 240.671,124.647 240.742 M107.576 241.049 C 107.883 241.129,108.385 241.129,108.692 241.049 C 108.999 240.969,108.748 240.903,108.134 240.903 C 107.520 240.903,107.269 240.969,107.576 241.049 M104.705 241.368 C 105.012 241.448,105.514 241.448,105.821 241.368 C 106.128 241.288,105.877 241.222,105.263 241.222 C 104.649 241.222,104.398 241.288,104.705 241.368 M131.981 241.374 C 132.378 241.450,132.952 241.447,133.257 241.367 C 133.562 241.288,133.238 241.225,132.536 241.229 C 131.834 241.232,131.585 241.298,131.981 241.374 M102.316 241.693 C 102.713 241.769,103.287 241.766,103.592 241.686 C 103.897 241.607,103.573 241.544,102.871 241.548 C 102.169 241.551,101.920 241.617,102.316 241.693 M184.530 241.786 C 183.670 242.005,183.654 242.030,184.370 242.036 C 184.809 242.039,185.526 241.927,185.965 241.786 C 187.037 241.443,185.879 241.443,184.530 241.786 M180.349 242.557 C 180.254 242.805,180.237 243.415,180.311 243.912 C 180.427 244.686,180.454 244.647,180.494 243.641 C 180.538 242.565,180.631 242.454,181.579 242.336 L 182.616 242.207 181.569 242.156 C 180.922 242.125,180.456 242.278,180.349 242.557 M331.579 242.962 C 330.877 243.400,330.590 243.655,330.941 243.528 C 331.292 243.402,331.797 243.275,332.063 243.245 C 332.723 243.172,333.333 242.769,333.333 242.405 C 333.333 241.968,333.005 242.072,331.579 242.962 M269.139 242.977 C 269.884 243.044,271.104 243.044,271.850 242.977 C 272.596 242.910,271.986 242.855,270.494 242.855 C 269.003 242.855,268.393 242.910,269.139 242.977 M282.542 242.974 C 283.115 243.045,283.976 243.044,284.455 242.971 C 284.935 242.898,284.466 242.840,283.413 242.842 C 282.360 242.844,281.968 242.903,282.542 242.974 M264.833 243.291 C 265.315 243.364,266.104 243.364,266.587 243.291 C 267.069 243.218,266.675 243.158,265.710 243.158 C 264.745 243.158,264.350 243.218,264.833 243.291 M286.842 243.291 C 287.325 243.364,288.114 243.364,288.596 243.291 C 289.079 243.218,288.684 243.158,287.719 243.158 C 286.754 243.158,286.360 243.218,286.842 243.291 M259.968 243.714 C 259.278 243.867,259.766 243.896,261.244 243.790 C 262.560 243.695,263.696 243.564,263.769 243.499 C 264.001 243.293,261.130 243.455,259.968 243.714 M290.514 243.607 C 290.911 243.683,291.485 243.680,291.790 243.600 C 292.095 243.521,291.770 243.458,291.069 243.462 C 290.367 243.465,290.117 243.530,290.514 243.607 M293.541 243.920 C 293.848 244.000,294.350 244.000,294.657 243.920 C 294.964 243.840,294.713 243.774,294.099 243.774 C 293.485 243.774,293.234 243.840,293.541 243.920 M330.463 245.455 C 329.688 246.244,329.126 246.890,329.213 246.890 C 329.301 246.890,330.007 246.244,330.781 245.455 C 331.556 244.665,332.118 244.019,332.031 244.019 C 331.943 244.019,331.237 244.665,330.463 245.455 M254.944 244.558 C 255.251 244.638,255.754 244.638,256.061 244.558 C 256.368 244.478,256.116 244.412,255.502 244.412 C 254.888 244.412,254.637 244.478,254.944 244.558 M298.808 244.564 C 299.204 244.640,299.778 244.637,300.083 244.557 C 300.388 244.477,300.064 244.415,299.362 244.419 C 298.660 244.422,298.411 244.487,298.808 244.564 M301.997 244.883 C 302.394 244.959,302.968 244.956,303.273 244.876 C 303.578 244.796,303.254 244.734,302.552 244.738 C 301.850 244.741,301.601 244.806,301.997 244.883 M304.549 245.202 C 304.946 245.278,305.520 245.275,305.825 245.195 C 306.130 245.115,305.805 245.053,305.104 245.057 C 304.402 245.060,304.152 245.125,304.549 245.202 M212.904 246.651 L 211.643 248.006 212.998 246.745 C 214.259 245.573,214.501 245.295,214.259 245.295 C 214.207 245.295,213.597 245.905,212.904 246.651 M307.576 245.527 C 308.234 245.596,309.310 245.596,309.968 245.527 C 310.626 245.459,310.088 245.402,308.772 245.402 C 307.456 245.402,306.918 245.459,307.576 245.527 M323.206 245.515 C 323.513 245.595,324.015 245.595,324.322 245.515 C 324.629 245.435,324.378 245.369,323.764 245.369 C 323.150 245.369,322.899 245.435,323.206 245.515 M314.290 245.852 C 315.834 245.910,318.274 245.910,319.713 245.851 C 321.151 245.792,319.888 245.744,316.906 245.745 C 313.923 245.745,312.746 245.793,314.290 245.852 M245.136 246.571 C 244.323 246.920,245.161 246.920,246.252 246.571 C 246.893 246.366,246.924 246.314,246.411 246.306 C 246.061 246.301,245.486 246.420,245.136 246.571 M241.627 247.528 C 241.225 247.701,241.166 247.802,241.467 247.802 C 241.730 247.802,242.233 247.679,242.584 247.528 C 242.986 247.355,243.045 247.254,242.743 247.254 C 242.480 247.254,241.978 247.377,241.627 247.528 M194.980 253.817 C 195.465 253.891,196.183 253.889,196.575 253.813 C 196.968 253.737,196.571 253.677,195.694 253.680 C 194.817 253.682,194.496 253.744,194.980 253.817 M94.817 256.050 C 95.299 256.123,96.089 256.123,96.571 256.050 C 97.053 255.977,96.659 255.917,95.694 255.917 C 94.729 255.917,94.334 255.977,94.817 256.050 M108.058 256.047 C 108.455 256.123,109.029 256.120,109.334 256.041 C 109.639 255.961,109.314 255.898,108.612 255.902 C 107.911 255.905,107.661 255.971,108.058 256.047 M58.089 263.600 C 57.296 264.419,57.145 264.741,57.468 264.927 C 57.703 265.063,57.785 265.053,57.650 264.905 C 57.515 264.756,57.866 264.159,58.430 263.578 C 58.994 262.996,59.384 262.520,59.296 262.520 C 59.208 262.520,58.665 263.006,58.089 263.600 M105.343 264.352 C 106.878 264.411,109.390 264.411,110.925 264.352 C 112.460 264.294,111.204 264.246,108.134 264.246 C 105.064 264.246,103.808 264.294,105.343 264.352 M99.442 264.659 C 99.837 264.735,100.482 264.735,100.877 264.659 C 101.272 264.583,100.949 264.521,100.159 264.521 C 99.370 264.521,99.047 264.583,99.442 264.659 M116.032 264.659 C 116.429 264.736,117.003 264.733,117.308 264.653 C 117.613 264.573,117.289 264.511,116.587 264.514 C 115.885 264.518,115.636 264.583,116.032 264.659 M95.774 264.973 C 96.081 265.053,96.583 265.053,96.890 264.973 C 97.197 264.892,96.946 264.827,96.332 264.827 C 95.718 264.827,95.467 264.892,95.774 264.973 M312.894 265.470 C 312.620 266.367,312.693 266.667,313.104 266.326 C 313.629 265.891,313.700 265.391,313.238 265.391 C 313.062 265.391,312.908 265.427,312.894 265.470 M248.565 267.525 C 248.872 267.605,249.374 267.605,249.681 267.525 C 249.988 267.444,249.737 267.379,249.123 267.379 C 248.509 267.379,248.258 267.444,248.565 267.525 M279.988 267.530 C 280.385 267.607,280.959 267.604,281.264 267.524 C 281.569 267.444,281.244 267.382,280.542 267.385 C 279.841 267.389,279.591 267.454,279.988 267.530 M255.104 268.168 C 255.498 268.244,256.144 268.244,256.539 268.168 C 256.934 268.092,256.611 268.029,255.821 268.029 C 255.032 268.029,254.709 268.092,255.104 268.168 M274.402 268.162 C 274.709 268.243,275.211 268.243,275.518 268.162 C 275.825 268.082,275.574 268.017,274.960 268.017 C 274.346 268.017,274.095 268.082,274.402 268.162 M263.252 268.499 C 264.620 268.559,266.773 268.558,268.037 268.498 C 269.301 268.438,268.182 268.389,265.550 268.389 C 262.919 268.390,261.885 268.439,263.252 268.499 M157.576 276.077 C 158.014 276.327,158.517 276.532,158.692 276.532 C 158.868 276.532,158.652 276.327,158.214 276.077 C 157.775 275.826,157.273 275.621,157.097 275.621 C 156.922 275.621,157.137 275.826,157.576 276.077 M251.116 276.456 C 251.423 276.536,251.926 276.536,252.233 276.456 C 252.540 276.376,252.289 276.310,251.675 276.310 C 251.061 276.310,250.809 276.376,251.116 276.456 M274.083 276.456 C 274.390 276.536,274.892 276.536,275.199 276.456 C 275.506 276.376,275.255 276.310,274.641 276.310 C 274.027 276.310,273.776 276.376,274.083 276.456 M255.426 276.781 C 255.823 276.857,256.397 276.854,256.702 276.774 C 257.007 276.694,256.683 276.632,255.981 276.635 C 255.279 276.639,255.030 276.704,255.426 276.781 M175.997 287.625 C 176.392 287.701,177.037 287.701,177.432 287.625 C 177.827 287.549,177.504 287.487,176.715 287.487 C 175.925 287.487,175.602 287.549,175.997 287.625 M179.817 287.950 C 180.384 288.020,181.388 288.021,182.050 287.952 C 182.712 287.883,182.249 287.825,181.021 287.824 C 179.793 287.823,179.251 287.879,179.817 287.950 M186.284 288.046 C 185.201 288.275,185.207 288.279,186.517 288.200 C 187.260 288.155,187.790 288.244,187.695 288.397 C 187.600 288.551,187.666 288.676,187.841 288.676 C 188.405 288.676,188.530 288.112,188.010 287.912 C 187.734 287.806,187.483 287.740,187.454 287.765 C 187.424 287.789,186.898 287.916,186.284 288.046 M270.335 288.676 C 269.933 288.849,269.874 288.950,270.175 288.950 C 270.439 288.950,270.941 288.827,271.292 288.676 C 271.694 288.503,271.753 288.402,271.451 288.402 C 271.188 288.402,270.686 288.525,270.335 288.676 M224.003 291.448 C 224.310 291.528,224.813 291.528,225.120 291.448 C 225.427 291.368,225.175 291.302,224.561 291.302 C 223.947 291.302,223.696 291.368,224.003 291.448 M226.399 291.773 C 226.796 291.849,227.370 291.846,227.675 291.766 C 227.980 291.686,227.656 291.624,226.954 291.627 C 226.252 291.631,226.002 291.696,226.399 291.773 M254.625 291.767 C 254.932 291.847,255.435 291.847,255.742 291.767 C 256.049 291.687,255.797 291.621,255.183 291.621 C 254.569 291.621,254.318 291.687,254.625 291.767 M228.947 292.091 C 229.342 292.167,229.988 292.167,230.383 292.091 C 230.778 292.015,230.455 291.953,229.665 291.953 C 228.876 291.953,228.553 292.015,228.947 292.091 M251.918 292.092 C 252.314 292.168,252.889 292.165,253.194 292.085 C 253.498 292.005,253.174 291.943,252.472 291.946 C 251.770 291.950,251.521 292.015,251.918 292.092 M232.301 292.414 C 232.786 292.487,233.504 292.485,233.896 292.410 C 234.288 292.334,233.892 292.274,233.014 292.276 C 232.137 292.279,231.816 292.341,232.301 292.414 M247.773 292.416 C 248.346 292.487,249.207 292.486,249.687 292.413 C 250.166 292.340,249.697 292.282,248.644 292.284 C 247.592 292.286,247.200 292.345,247.773 292.416 M238.981 292.740 C 240.158 292.801,242.167 292.802,243.447 292.741 C 244.727 292.680,243.764 292.630,241.308 292.630 C 238.852 292.629,237.805 292.679,238.981 292.740 M97.106 303.455 C 97.014 303.693,96.990 304.951,97.051 306.250 L 97.162 308.612 97.225 305.981 L 97.289 303.349 107.802 303.349 L 118.316 303.349 118.427 305.821 L 118.539 308.293 118.520 305.742 L 118.501 303.190 107.886 303.106 C 99.184 303.037,97.242 303.100,97.106 303.455 M136.938 303.268 C 138.658 303.326,141.385 303.326,142.999 303.268 C 144.613 303.210,143.206 303.163,139.872 303.163 C 136.539 303.164,135.219 303.211,136.938 303.268 M181.430 303.266 C 182.357 303.330,183.792 303.330,184.620 303.264 C 185.447 303.199,184.689 303.146,182.935 303.147 C 181.180 303.148,180.503 303.201,181.430 303.266 M205.747 303.589 C 205.750 303.972,205.828 304.026,205.997 303.760 C 206.154 303.513,207.384 303.336,209.421 303.269 L 212.600 303.164 209.171 303.097 C 206.091 303.037,205.742 303.087,205.747 303.589 M229.125 303.268 C 232.177 303.370,232.248 303.390,232.060 304.079 C 231.892 304.694,231.912 304.713,232.219 304.224 C 232.841 303.232,232.276 303.028,229.088 303.097 L 225.997 303.164 229.125 303.268 M252.552 303.269 C 255.052 303.323,259.143 303.323,261.643 303.269 C 264.143 303.215,262.097 303.171,257.097 303.171 C 252.097 303.171,250.052 303.215,252.552 303.269 M282.828 303.243 C 282.711 303.360,282.616 309.389,282.616 316.640 L 282.616 329.825 291.528 329.825 C 296.430 329.825,300.507 329.717,300.589 329.585 C 300.670 329.454,296.732 329.386,291.836 329.436 L 282.935 329.525 282.935 316.449 L 282.935 303.373 285.885 303.268 L 288.836 303.163 285.938 303.097 C 284.345 303.060,282.945 303.126,282.828 303.243 M139.781 311.722 L 139.713 315.470 142.344 315.406 L 144.976 315.342 142.514 315.234 L 140.053 315.125 139.951 311.550 L 139.849 307.974 139.781 311.722 M104.778 318.979 L 104.785 329.665 107.895 329.756 L 111.005 329.848 110.929 319.071 L 110.854 308.293 110.766 318.900 L 110.677 329.506 107.815 329.506 L 104.953 329.506 104.862 318.900 L 104.771 308.293 104.778 318.979 M253.729 311.164 L 253.748 313.716 255.106 313.747 L 256.464 313.779 255.198 313.650 L 253.933 313.521 253.821 311.067 L 253.709 308.612 253.729 311.164 M154.473 311.643 C 154.473 312.432,154.535 312.755,154.611 312.360 C 154.687 311.966,154.687 311.320,154.611 310.925 C 154.535 310.530,154.473 310.853,154.473 311.643 M148.399 311.643 C 148.399 312.257,148.465 312.508,148.545 312.201 C 148.625 311.894,148.625 311.392,148.545 311.085 C 148.465 310.778,148.399 311.029,148.399 311.643 M259.899 313.792 C 260.826 313.857,262.261 313.856,263.089 313.791 C 263.916 313.725,263.158 313.672,261.404 313.673 C 259.649 313.674,258.972 313.728,259.899 313.792 M152.293 317.464 L 151.356 318.501 152.392 317.564 C 153.359 316.691,153.576 316.427,153.329 316.427 C 153.274 316.427,152.808 316.894,152.293 317.464 M253.640 321.433 C 253.611 323.045,253.696 324.431,253.828 324.513 C 253.959 324.595,254.027 323.706,253.979 322.538 C 253.826 318.838,253.692 318.404,253.640 321.433 M181.260 319.215 C 182.269 319.278,183.919 319.278,184.928 319.215 C 185.937 319.152,185.112 319.100,183.094 319.100 C 181.077 319.100,180.251 319.152,181.260 319.215 M139.783 324.789 L 139.713 329.482 136.762 329.587 L 133.812 329.692 136.772 329.758 C 140.330 329.838,140.079 330.250,139.952 324.546 L 139.853 320.096 139.783 324.789 M255.901 324.634 C 256.559 324.703,257.636 324.703,258.293 324.634 C 258.951 324.565,258.413 324.509,257.097 324.509 C 255.781 324.509,255.243 324.565,255.901 324.634 M264.039 324.628 C 264.436 324.704,265.010 324.701,265.315 324.621 C 265.620 324.541,265.295 324.479,264.593 324.482 C 263.892 324.486,263.642 324.551,264.039 324.628 M292.185 324.617 C 296.457 324.848,300.726 324.861,300.590 324.641 C 300.508 324.510,298.189 324.429,295.436 324.462 C 292.683 324.495,291.220 324.565,292.185 324.617 M155.465 329.126 C 155.622 329.380,154.683 329.514,152.245 329.586 L 148.804 329.689 152.392 329.757 C 155.717 329.820,156.605 329.610,155.613 328.997 C 155.388 328.858,155.331 328.909,155.465 329.126 M189.874 329.187 C 190.017 329.714,195.720 330.085,196.209 329.598 C 196.348 329.459,195.084 329.392,193.400 329.449 C 191.128 329.525,190.261 329.443,190.041 329.130 C 189.807 328.798,189.772 328.810,189.874 329.187 M215.441 329.258 C 215.502 329.558,216.434 329.665,218.979 329.665 C 221.524 329.665,222.457 329.558,222.517 329.258 C 222.563 329.035,222.527 328.999,222.438 329.179 C 222.342 329.370,220.912 329.506,218.979 329.506 C 217.046 329.506,215.616 329.370,215.521 329.179 C 215.432 328.999,215.396 329.035,215.441 329.258 M170.893 329.741 C 171.814 329.805,173.321 329.805,174.242 329.741 C 175.163 329.676,174.410 329.624,172.568 329.624 C 170.726 329.624,169.972 329.676,170.893 329.741 M252.392 329.744 C 254.980 329.798,259.215 329.798,261.802 329.744 C 264.390 329.691,262.273 329.647,257.097 329.647 C 251.922 329.647,249.805 329.691,252.392 329.744 " stroke="none" fill="#99abaf" fill-rule="evenodd"/>
    <path id="path4" d="M142.404 98.644 L 141.467 99.681 142.504 98.744 C 143.470 97.871,143.687 97.608,143.441 97.608 C 143.386 97.608,142.919 98.074,142.404 98.644 M256.285 101.163 L 257.439 102.645 256.311 103.342 C 254.928 104.197,254.800 104.567,256.165 103.766 C 257.780 102.818,257.799 102.625,256.418 101.102 L 255.131 99.681 256.285 101.163 M252.073 105.938 C 250.986 106.634,250.634 107.102,251.595 106.574 C 252.327 106.171,253.473 105.285,253.270 105.279 C 253.182 105.276,252.644 105.573,252.073 105.938 M188.338 107.679 C 187.998 107.955,187.922 108.076,188.170 107.947 C 188.418 107.819,189.064 107.607,189.605 107.478 C 190.511 107.261,190.524 107.240,189.774 107.210 C 189.325 107.192,188.679 107.403,188.338 107.679 M247.927 108.490 C 246.839 109.186,246.488 109.654,247.448 109.126 C 248.180 108.723,249.327 107.837,249.123 107.831 C 249.035 107.828,248.497 108.124,247.927 108.490 M186.045 108.953 C 185.299 109.399,184.689 109.840,184.689 109.932 C 184.689 110.104,186.841 108.882,187.384 108.402 C 187.933 107.917,187.422 108.127,186.045 108.953 M197.448 109.091 C 197.887 109.231,198.604 109.344,199.043 109.340 C 199.759 109.335,199.743 109.310,198.884 109.091 C 197.534 108.748,196.376 108.748,197.448 109.091 M200.638 109.729 C 201.077 109.869,201.722 109.984,202.073 109.984 C 202.579 109.984,202.545 109.931,201.914 109.729 C 201.475 109.588,200.829 109.473,200.478 109.473 C 199.973 109.473,200.007 109.527,200.638 109.729 M245.375 110.085 C 244.288 110.781,243.936 111.248,244.896 110.720 C 245.628 110.318,246.775 109.432,246.571 109.425 C 246.483 109.423,245.945 109.719,245.375 110.085 M183.333 110.549 C 182.141 111.196,182.213 111.466,183.413 110.845 C 183.939 110.573,184.370 110.282,184.370 110.199 C 184.370 109.994,184.336 110.005,183.333 110.549 M203.668 110.367 C 205.018 110.710,206.176 110.710,205.104 110.367 C 204.665 110.226,203.947 110.114,203.509 110.117 C 202.792 110.123,202.809 110.148,203.668 110.367 M209.569 111.643 C 210.008 111.783,210.726 111.895,211.164 111.892 C 211.881 111.887,211.864 111.861,211.005 111.643 C 209.655 111.299,208.497 111.299,209.569 111.643 M241.866 112.317 C 240.779 113.014,240.427 113.481,241.388 112.953 C 242.119 112.551,243.266 111.664,243.062 111.658 C 242.974 111.656,242.436 111.952,241.866 112.317 M179.187 112.989 C 177.731 113.833,177.723 113.909,179.027 114.631 L 180.064 115.205 179.266 114.525 C 178.510 113.880,178.499 113.825,179.055 113.462 C 180.989 112.195,181.073 111.896,179.187 112.989 M215.470 112.929 C 216.699 113.246,217.990 113.501,218.341 113.497 C 218.692 113.494,217.903 113.224,216.587 112.899 C 215.271 112.573,213.979 112.317,213.716 112.330 C 213.453 112.343,214.242 112.613,215.470 112.929 M239.069 114.080 C 237.442 115.159,236.868 115.728,238.139 115.003 C 239.258 114.365,240.751 113.255,240.505 113.245 C 240.414 113.241,239.768 113.617,239.069 114.080 M219.777 113.876 C 220.215 114.016,220.861 114.131,221.212 114.131 C 221.717 114.131,221.684 114.078,221.053 113.876 C 220.614 113.735,219.968 113.620,219.617 113.620 C 219.112 113.620,219.145 113.673,219.777 113.876 M131.245 114.862 C 130.964 115.405,130.791 115.905,130.860 115.975 C 130.930 116.044,131.225 115.600,131.517 114.988 C 132.173 113.612,131.945 113.507,131.245 114.862 M228.708 115.789 C 229.147 115.930,229.864 116.042,230.303 116.039 C 231.019 116.034,231.003 116.008,230.144 115.789 C 228.794 115.446,227.636 115.446,228.708 115.789 M236.174 115.926 C 235.816 116.177,234.959 116.440,234.269 116.511 L 233.014 116.639 234.290 116.686 C 235.128 116.716,235.840 116.518,236.364 116.108 C 237.285 115.388,237.140 115.249,236.174 115.926 M185.327 118.165 C 185.327 118.253,185.758 118.548,186.284 118.820 C 186.810 119.092,187.241 119.243,187.241 119.155 C 187.241 119.067,186.810 118.773,186.284 118.501 C 185.758 118.229,185.327 118.078,185.327 118.165 M193.939 123.269 C 193.939 123.357,194.370 123.651,194.896 123.923 C 195.423 124.196,195.853 124.347,195.853 124.259 C 195.853 124.171,195.423 123.877,194.896 123.604 C 194.370 123.332,193.939 123.181,193.939 123.269 M260.367 128.266 C 259.280 128.963,258.928 129.430,259.888 128.902 C 260.620 128.500,261.767 127.613,261.563 127.607 C 261.475 127.605,260.937 127.901,260.367 128.266 M257.815 129.861 C 256.728 130.558,256.376 131.025,257.337 130.497 C 258.068 130.095,259.215 129.208,259.011 129.202 C 258.923 129.199,258.385 129.496,257.815 129.861 M208.237 133.529 C 208.326 134.292,208.181 134.857,207.772 135.341 L 207.177 136.045 207.895 135.437 C 208.606 134.834,208.918 132.922,208.360 132.577 C 208.221 132.491,208.166 132.920,208.237 133.529 M252.073 133.370 C 250.986 134.066,250.634 134.534,251.595 134.006 C 252.327 133.604,253.473 132.717,253.270 132.711 C 253.182 132.708,252.644 133.005,252.073 133.370 M202.143 139.209 C 200.260 140.512,199.812 140.969,201.201 140.169 C 202.272 139.552,204.112 138.136,203.828 138.147 C 203.740 138.150,202.982 138.628,202.143 139.209 M243.461 138.793 C 242.374 139.489,242.022 139.957,242.982 139.429 C 243.714 139.026,244.861 138.140,244.657 138.134 C 244.569 138.131,244.031 138.428,243.461 138.793 M238.750 141.831 C 237.123 142.910,236.549 143.480,237.820 142.754 C 238.939 142.116,240.432 141.006,240.186 140.996 C 240.095 140.992,239.449 141.368,238.750 141.831 M231.978 146.129 C 230.890 146.825,230.539 147.293,231.499 146.765 C 232.231 146.363,233.378 145.476,233.174 145.470 C 233.086 145.467,232.548 145.764,231.978 146.129 M222.482 152.038 C 220.855 153.117,220.281 153.687,221.552 152.962 C 222.671 152.323,224.164 151.214,223.918 151.203 C 223.827 151.199,223.181 151.575,222.482 152.038 M219.219 154.104 C 218.131 154.800,217.779 155.268,218.740 154.740 C 219.472 154.337,220.618 153.451,220.415 153.445 C 220.327 153.442,219.789 153.739,219.219 154.104 M216.667 155.699 C 215.579 156.395,215.228 156.862,216.188 156.334 C 216.920 155.932,218.067 155.046,217.863 155.039 C 217.775 155.037,217.237 155.333,216.667 155.699 M214.115 157.293 C 213.028 157.990,212.676 158.457,213.636 157.929 C 214.368 157.527,215.515 156.640,215.311 156.634 C 215.223 156.632,214.685 156.928,214.115 157.293 M211.563 158.888 C 210.476 159.585,210.124 160.052,211.085 159.524 C 211.816 159.122,212.963 158.235,212.759 158.229 C 212.671 158.227,212.133 158.523,211.563 158.888 M206.389 162.224 C 203.534 164.090,202.831 164.630,204.147 163.946 C 205.174 163.412,209.250 160.707,209.250 160.559 C 209.250 160.362,209.141 160.426,206.389 162.224 M251.037 163.294 C 250.423 163.410,252.145 163.452,254.864 163.387 C 257.584 163.322,259.952 163.220,260.128 163.159 C 260.722 162.954,252.161 163.081,251.037 163.294 M261.005 163.537 C 261.312 163.617,261.814 163.617,262.121 163.537 C 262.428 163.457,262.177 163.391,261.563 163.391 C 260.949 163.391,260.698 163.457,261.005 163.537 M264.581 164.278 C 265.626 164.612,266.531 164.835,266.591 164.775 C 266.752 164.614,263.770 163.633,263.181 163.654 C 262.905 163.663,263.535 163.944,264.581 164.278 M246.730 164.274 C 245.918 164.624,246.756 164.624,247.847 164.274 C 248.488 164.069,248.519 164.017,248.006 164.010 C 247.656 164.004,247.081 164.124,246.730 164.274 M201.771 165.068 C 200.005 166.153,200.177 166.175,210.845 166.267 L 220.255 166.348 220.426 171.770 L 220.598 177.193 220.666 171.914 C 220.714 168.153,220.624 166.525,220.351 166.252 C 220.071 165.972,217.442 165.868,210.542 165.864 L 201.116 165.858 202.153 165.195 C 202.723 164.829,203.190 164.473,203.190 164.402 C 203.190 164.206,203.121 164.239,201.771 165.068 M243.222 165.533 C 242.520 165.865,242.089 166.138,242.265 166.139 C 242.700 166.142,245.217 164.963,244.817 164.944 C 244.641 164.936,243.923 165.201,243.222 165.533 M267.624 165.391 C 268.062 165.641,268.636 165.846,268.900 165.845 C 269.163 165.845,268.895 165.635,268.305 165.378 C 266.946 164.789,266.582 164.795,267.624 165.391 M238.950 167.703 C 237.837 168.361,236.405 169.372,235.768 169.950 C 234.657 170.957,234.675 170.952,236.204 169.828 C 237.081 169.183,238.553 168.230,239.474 167.710 C 240.905 166.903,241.427 166.507,241.061 166.507 C 241.013 166.507,240.063 167.045,238.950 167.703 M232.525 172.807 L 230.781 174.641 232.616 172.898 C 234.320 171.278,234.596 170.973,234.359 170.973 C 234.309 170.973,233.484 171.798,232.525 172.807 M228.270 178.070 C 227.075 179.944,225.835 182.299,225.842 182.683 C 225.844 182.821,226.429 181.865,227.142 180.557 C 227.855 179.250,228.724 177.779,229.073 177.288 C 229.423 176.797,229.625 176.396,229.523 176.396 C 229.421 176.396,228.858 177.149,228.270 178.070 M220.542 181.978 C 220.543 184.609,220.592 185.643,220.652 184.276 C 220.712 182.908,220.712 180.755,220.651 179.491 C 220.591 178.227,220.542 179.346,220.542 181.978 M223.787 188.061 C 223.669 188.529,223.635 188.973,223.710 189.048 C 223.785 189.123,223.943 188.802,224.060 188.334 C 224.177 187.867,224.212 187.423,224.137 187.348 C 224.062 187.273,223.904 187.594,223.787 188.061 M222.728 194.099 C 222.732 194.801,222.797 195.050,222.873 194.653 C 222.949 194.257,222.947 193.682,222.867 193.377 C 222.787 193.072,222.724 193.397,222.728 194.099 M221.771 197.927 C 221.775 198.628,221.840 198.878,221.916 198.481 C 221.992 198.084,221.990 197.510,221.910 197.205 C 221.830 196.900,221.767 197.225,221.771 197.927 M222.438 199.203 C 222.439 200.606,222.495 201.141,222.563 200.390 C 222.630 199.640,222.629 198.492,222.560 197.838 C 222.492 197.185,222.437 197.799,222.438 199.203 M256.858 313.776 C 257.165 313.857,257.667 313.857,257.974 313.776 C 258.281 313.696,258.030 313.631,257.416 313.631 C 256.802 313.631,256.551 313.696,256.858 313.776 " stroke="none" fill="#ab6f2c" fill-rule="evenodd"/>
  </g>
</svg>