<svg xmlns="http://www.w3.org/2000/svg" baseProfile="tiny-ps" viewBox="0 0 400000 400000"><g fill-rule="evenodd"><path d="M288872 85054c-3609 872-9720 4195-21864 11892a1391000 1391000 0 01-13100 8169 1230000 1230000 0 00-12848 8024c-3119 1984-5990 3605-6380 3602-1495-13-8435-1421-23675-4805-3476-772-15590-3320-19176-4034l-2588-515-5319 3126c-2926 1720-5270 3271-5212 3448 60 176 1608 1178 3442 2225 4443 2538 13038 7628 17321 10260 11158 6854 11243 7043 5101 11346-4359 3054-7696 5343-8383 5750-382 225-262 697 700 2767 3040 6539 3190 8937 3028 48587-118 28660-184 31971-682 34131-1894 8214-6970 12284-16500 13230l-2110 210-199 1653c-608 5054-270 5673 3997 7355 12768 5030 26705 750 32064-9848 3670-7255 3716-7812 3743-44338l23-30952-10019-160-10018-160 3160-1937c1740-1067 7133-4440 11987-7496s9232-5790 9730-6072c495-283 4777-2992 9514-6020a2282000 2282000 0 01 25997-16364c5170-3211 7836-5012 23692-15998 17600-12194 21603-16332 21603-22332 0-4063-9226-6637-17029-4752M75130 143407c-12355 37969-18609 56885-23613 71425-4840 14064-5785 16786-6064 17467-217 532 430 558 11994 479l12223-86 1830-5900a677000 677000 0 01 3044-9570l1214-3668h34052l2980 8612c1637 4737 3067 9010 3175 9498l198 885 29717-88 29718-88 2710-911c24485-8228 25812-41670 1964-49480l-1705-557 3260-1606c7324-3614 10932-9285 11619-18267 1015-13270-6573-23492-20272-27312l-2681-745-24136-95-24136-95 510 1684c445 1469 522 4743 596 25450l86 23764-1272-3828c-2350-7070-4990-15237-8570-26476-7251-22760-5810-21435-23660-21753l-11050-197zm89733 10147c7098 2310 8746 12879 2729 17503-2568 1973-3623 2148-12945 2148h-8236v-20470l8374 132c6827 108 8688 235 10078 687m-71430 7530c394 1430 3315 10514 8044 25023 1370 4202 2444 7685 2390 7740s-5059 62-11120 16l-11019-84 2481-7815a3804000 3804000 0 00 3827-12120 876000 876000 0 01 2715-8497c752-2304 1468-4650 1592-5215 270-1226 555-977 1090 952m223154 2380c-21949 4013-34405 25730-27146 47330 7024 20898 32944 29842 50467 17413 4788-3396 10300-11186 8350-11800-401-127-3592-1503-7090-3060s-6452-2720-6564-2586c-112 134-738 990-1393 1905-7585 10596-24280 5732-26783-7803l-192-1036 22080-5c13328-3 22272-125 22560-307 655-412 838-7300 315-11810-1853-15970-12724-27358-27108-28396-4840-358-4730-360-7496 148m-65231 44c-23869 4346-35893 30170-24567 52762 11040 22020 45902 23643 56857 2647 566-1085 960-2033 877-2106s-1930-884-4100-1803a272000 272000 0 01-6977-3078c-3617-1678-3715-1688-4250-395-2551 6160-12961 8943-19825 5300-4014-2130-7847-8250-7900-12610-3-317 4595-402 21926-405 12062-4 22126-130 22365-282 830-525 317-13214-687-17005-2906-10967-10344-19054-20482-22268-2182-692-10870-1190-13237-760m10293 16167c2588 1280 4020 2700 5320 5280 710 1410 1674 5623 1359 5940-95 94-6106 172-13357 172-15070 0-13690 357-12420-3224 2880-8160 11596-11884 19108-8168m63382-862c2998 890 5863 3287 7302 6110 660 1292 1659 5475 1413 5911-188 331-26504 276-26710-56-273-440 938-4330 1808-5810 3149-5362 10034-7980 16186-6153m-159190 13702c12084 2848 12749 18322 957 22230-1848 614-2930 690-11216 810l-9171 130v-23660l8693 3c6628 4 9178 120 10738 487m-55475 48325c-22230 2146-38537 9150-51196 21993l-2233 2265 1754-767c1593-697 8853-3017 14514-4638 27620-7910 56170-4242 90270 11595 6559 3046 8658 3975 15152 6707 17190 7232 32440 11526 48165 13562 26376 3415 55350-3165 76122-17285 2816-1915 10322-8015 10322-8390 0-74-1353 507-3007 1290-5460 2586-14724 5527-22975 7294-29763 6372-62562 606-106872-18788-19710-8627-31620-12190-47527-14220-5866-748-17750-1075-22488-618m220648 2602c-5820 2920-16940 3218-33567 896-19720-2753-39267-1470-56620 3714-3484 1042-12556 4400-13235 4900-1347 994-12680 5420-13875 5420-5787 0 19274 6826 30940 8430 9000 1232 9940 1293 20255 1295 24950 5 44336-5780 60287-17988 2920-2234 9015-8236 7759-7640-55 27-930 464-1941 972M97690 264813c-4136 344-4645 550-2710 1100 657 187 5717 1806 11243 3600 44119 14310 54447 16757 77992 18480 3950 288 4336 241 2344-284-1914-505-16875-6463-24992-9953-26624-11447-42704-14705-63876-12943m-400 41087v2556h7654v21053h5742v-21053h7655v-5104h-21050zm36681 10531v13080h5742v-9247l1675 8 1674 7 3030 4614 3030 4613 3282 7 3280 7-382-718c-210-395-1614-2584-3120-4865-1505-2280-2780-4242-2836-4358-54-116 212-310 592-430 5074-1613 6032-10603 1476-13903-2227-1613-3792-1882-10968-1882h-6480zm43809-8060c-6156 15755-8083 20747-8083 20932 0 113 1334 206 2964 206h2964l942-2719 942-2718 5390 88 5392 87 429 1276c237 702 658 1886 936 2632l503 1356h3040c2305 5 3000-92 2872-394a2236000 2236000 0 01-3370-8692 2497000 2497000 0 00-4902-12600l-1700-4305-3180-87-3178-87zm28280-4750c0 147 1305 3700 2899 7894s3446 9134 4115 10976a557000 557000 0 00 1910 5183l692 1835h6583l548-1356c1742-4315 9410-24420 9410-24673 0-70-1400-127-3110-126l-3110 1-2037 5660a1362640 1362640 0 00-3410 9607c-755 2170-1436 4006-1510 4080-130 130-1155-2776-4941-14005l-1802-5343h-3116c-1712 0-3114 120-3114 268m41790 12810v13078h18528l-94-2473-93-2472h-12440l-92-2950-90-2950h10869v-4770l-5343-87-5343-88-93-2625-92-2624 6153-87 6153-87 93-2472 94-2472h-18210zm35088 0v13078h17543v-4785h-4421c-2431 0-5087-90-5901-202l-1480-203v-20970h-5741zm-136375-7840c1830 764 2543 2837 1599 4660-751 1455-2151 2005-5496 2160l-2950 140v-7414h2879c1769 0 3300 175 3967 453m37594 4343a217000 217000 0 00 1770 4700l670 1673h-3506c-4050 0-3924 145-2676-3106 872-2270 1848-4934 2180-5950 268-824 306-757 1559 2682" fill="#07495b"/><path d="M0 200000v200000h400000V0H0zM210367 73967c18275 3121 32986 11776 46632 27435l944 1084 6196-3909c3408-2150 7057-4451 8110-5113 11861-7463 15514-8934 22175-8934 17254 0 15644 9821-3834 23376-2544 1770-8644 6009-13557 9420-4912 3410-8968 6232-9014 6270s141 701 416 1474c2928 8251 4035 19690 2868 29637-433 3689-1627 10361-1947 10878-76 123 544 620 1378 1104 8408 4872 14169 14183 15379 24847 462 4076 430 11417-52 11900-291 289-5714 382-22457 382H241530l472 2152c2969 13545 19540 17194 26798 5900 1256-1954 1002-1874 2901-913 828 420 4088 1874 7246 3230s5788 2510 5843 2558c56 49-287 855-762 1794-10973 21696-46223 20185-57502-2465-2691-5405-5360-16915-5505-23740-145-6868-445-2256-436 6715 30 30378-505 36026-4055 42806-5860 11192-21155 15218-33970 8943-2451-1200-2503-1307-2416-4950 90-3750 91-3753 1658-3753 9553 0 15975-5303 17476-14430 688-4188 779-66854 103-71861-1966-14580-10966-23170-26388-25192-2935-384-7914-477-25481-477-21101 0-21834-20-21834-596 0-1335 3364-10335 5374-14378 14775-29715 47386-46656 79315-41203m-107584 58702c3713 1160 5202 3536 8378 13367 1342 4155 2634 8128 2870 8829 237 702 1459 4506 2715 8453 1256 3948 3241 10120 4411 13716l2128 6540-78-22330c-71-20390-189-23906-921-27330l-183-857 19410 40c31140 67 33064 286 40320 4605 13756 8190 16124 29785 4340 39587-1694 1410-6260 3890-7183 3902-287 4 440 346 1616 760 22859 8070 22344 40884-772 49146-4835 1728-5530 1762-35758 1760h-27808l-1349-3907-3307-9570-1957-5665-16922 82-16922 83-807 2392c-444 1316-1826 5622-3070 9570l-2262 7176H57404c-8006 0-12248-110-12209-320 33-174 1933-5700 4222-12280 4572-13136 17500-52077 24653-74265l4558-14140 11484 144c7442 93 11901 274 12671 515m43704 30324 84 9882 4081 126c15805 487 19894-1372 20251-9205 385-8465-2995-10686-16265-10686h-8236zm-54043-2706c-88 526-1130 3970-2315 7656a1770000 1770000 0 00-3053 9570c-494 1578-1843 5855-2998 9504s-2100 6700-2100 6778 4880 144 10845 144 10845-96 10845-214-2443-7760-5429-16986l-5532-17090c-56-175-174 112-263 638m235081 3217c12054 2479 21115 12515 23580 26120 684 3777 772 12900 132 13673-400 482-2373 528-22582 528H306510l212 1196c1569 8880 8850 14240 17508 12888 3982-622 8463-3656 9829-6654 463-1015 227-1083 8133 2370 5519 2410 7064 3210 6924 3588-642 1744-3551 5916-5575 8000-16290 16760-47067 8470-54353-14640-8283-26270 12919-52300 38337-47073m-73936 15030c-5762 1000-9715 4813-11422 11020l-330 1195h26507l-216-1675c-890-6910-7566-11750-14540-10540m64115 190c-5485 1263-10526 6805-10526 11575 0 380 2060 450 13274 450h13274l-226-1503c-1150-7670-8091-12293-15796-10520m-171054 13490c-130 130-238 5380-238 11669v11423l8693-5c6548-3 9186-120 10696-477 11893-2804 12588-18060 998-21925-2114-704-19537-1302-20150-690m-16026 48800c16147 1658 28989 5414 50116 14658 45063 19717 77646 25220 108417 18313 5957-1338 17105-5028 21057-6970 3858-1896 4034-1831 1433 530-21074 19140-55155 28545-86924 23988-13380-1920-21510-4085-36520-9724-11500-4325-12690-4820-22980-9556-11230-5170-10143-4687-14015-6227-25115-9990-49107-12610-71292-7784-6802 1477-19206 5150-21640 6407-4244 2189 5267-6532 12229-11216 15402-10360 36920-14805 60128-12422m202709 1435c0 672-6660 6878-9760 9090-26390 18855-66012 22216-106108 9002-4657-1535-5940-2166-4404-2166 1104 0 6336-1902 10646-3871 24250-11076 44438-13880 74220-10308 17474 2094 27432 1809 32855-940 2406-1220 2552-1265 2552-810m-212005 22620c12556 1803 25195 5790 41987 13246 4750 2109 21176 8607 23370 9245 1032 300 1752 673 1642 850-108 175-412 235-675 134s-2823-326-5687-498c-19275-1163-32670-4370-73513-17600a2399000 2399000 0 00-8772-2824c-6364-2027-7380-2488-5662-2568 307-16 2424-223 4705-461 5920-620 16530-396 22606 476m-2736 40760 93 2632h-7680v21395l-3110-92-3110-90-86-10607-84-10606h-7650v-2500c0-3222-1080-2942 10983-2846l10550 84zm28415-2456c3490 566 5618 2066 6923 4882 1834 3960-347 10040-3924 10940-726 180-726 184 342 1660 1335 1852 5628 8560 5628 8800 0 98-1542 176-3428 174l-3430-4-3136-4780-3138-4782h-2798l-88 4705-90 4707-2950 92-2950 92v-26820l5503 4c3026 0 6417 150 7534 332m39240 237c168 314 2044 5087 4168 10606s4350 11228 4944 12686c1263 3100 1358 2992-2534 2864l-2818-93-985-2790-985-2790h-5157l-5157-1-1027 2870-1027 2872h-3146c-1732 0-3148-92-3148-205 0-206 2710-7250 7413-19253 1410-3597 2703-6720 2876-6938 544-690 6198-543 6580 170m27750 4294c897 2676 2396 7061 3327 9741l1693 4878 2637-7430c3983-11220 4060-11424 4400-11763 543-544 6328-223 6265 348-55 505-2925 8098-7290 19290l-2618 6707h-6858l-2297-6220a2175000 2175000 0 00-4910-13120c-1436-3796-2610-6989-2610-7097s1490-197 3310-197h3313zm52027-2152v2710h-12122v5106h10527v5103h-10527v5742h12440v5423h-18500V316640c0-7251 96-13280 213-13397s4207-213 9090-213h8880zm22647 7967v10679l5932 87 5932 86 47 2552 50 2550-9012 86-9010 84v-13190c0-7253 94-13284 210-13400s1480-214 3030-214h2819zM140030 311640v3510h2562c4013 0 5731-1069 5731-3563 0-2399-1840-3433-6140-3448l-2153-8zm41240 2768-1604 4410 1725 100c948 53 2412 53 3250 0l1528-96-1647-4410-1647-4407" fill="#fbf3e9"/><path d="M191069 73367c-1141 148-2791 351-3669 451-1852 212-4890 779-5582 1043-263 101-855 233-1316 294s-1251 276-1755 479-1262 414-1685 469c-422 55-853 222-957 371s-534 293-957 320c-422 26-866 206-985 399-120 193-527 374-906 403-380 28-690 180-690 337s-198 209-441 116c-243-94-727 29-1075 273s-723 353-834 242-201-34-201 171c0 204-108 348-239 320-522-115-1994 460-1994 778 0 185-89 248-199 138-230-230-2530 881-2832 1369-111 181-336 247-500 146s-297-23-297 173-143 268-320 159c-174-108-318-36-318 160s-143 268-320 160c-174-109-318-37-318 160s-128 276-285 180-373 50-480 325c-105 277-357 448-560 381-202-67-705 216-1120 630-412 412-877 671-1033 575-155-96-373 60-483 347-110 288-290 433-400 323-111-111-405 48-655 353q-450 549-243 74c116-263-85-120-447 319-363 439-667 654-676 479s-165-65-345 246c-180 310-450 490-596 400s-748 295-1336 857-1177 1029-1310 1036-202 118-158 246c94 276-1415 1389-1742 1284-124-40-607 426-1072 1036s-954 1042-1087 960c-292-181-1354 934-1116 1172 92 92-50 350-318 570-268 223-487 293-487 157s-283 9-630 323c-347 313-540 717-430 896s68 242-97 140c-164-101-1084 628-2043 1620s-1375 1520-925 1173c450-348 164 3-638 780-801 778-1170 1229-820 1002 352-226-7 195-796 936-790 742-1220 1249-957 1128s83 90-400 469c-484 380-798 820-700 980s20 292-176 292-266 147-155 327 84 288-61 239c-144-48-286 40-315 196s-244 402-478 547c-235 144-426 417-426 605s-216 478-480 645c-262 166-342 304-177 307s20 230-320 507c-340 276-424 402-186 280 295-152 258 42-117 614-300 460-684 837-850 837-165 0-215 138-110 307 104 169-67 576-380 904-314 328-614 800-667 1048-54 249-303 610-554 803-250 193-362 444-248 558s32 208-183 208-303 143-194 319c108 175 45 319-140 319s-304 107-263 239c128 403-772 2312-1090 2312-165 0-210 144-102 319s37 319-159 319c-197 0-268 144-160 320s37 318-159 318c-197 0-268 144-160 320s50 318-130 318-253 197-160 438c92 240-67 671-352 957-286 285-402 520-258 524s113 110-69 240c-456 322-1446 2970-1237 3308 94 150 3 275-202 275-204 0-289 215-188 478 101 264 30 480-159 480s-263 210-164 467c100 258 50 550-110 648s-212 390-113 648c100 258 35 470-143 470s-243 308-144 687c131 500 71 620-223 438-300-186-345-66-176 469 156 489 116 648-125 499-500-310-440 308 72 733 302 250 6826 353 22457 356 12118 2 22226 75 22462 163 432 160 4276 498 5613 492 395-2 717 154 717 346s211 269 470 170c256-100 558-33 670 147s402 250 647 156c246-94 446-17 446 172 0 188 216 260 480 159s477-30 477 160c0 188 216 260 480 159s477-73 477 60c0 247 2114 1155 2712 1166 186 3 602 252 936 553s727 472 876 380 270-7 270 189 144 268 321 158c177-110 407 25 512 299s320 416 478 319c160-98 373 45 480 319 103 273 301 427 440 342 137-86 487 207 777 650 290 442 642 734 782 647s570 272 960 796c411 560 860 863 1084 734 210-121 280-106 155 33-188 209 1504 2476 3172 4250 376 400 4878-2430 11170-7025 1781-1297 2226-2628 1282-3814-877-1100-13940-9177-25200-15582-5258-2991-5087-2822-3669-3637a1023700 1023700 0 00 5623-3303l4586-2706 7376 1520a1662000 1662000 0 01 17987 3862c12430 2750 18526 3960 19856 3960 683 0 3050-1310 8213-4562 3990-2514 8928-5602 10973-6863 3510-2163 4085-2767 3310-3473-149-136-156-33-15 230 287 532 100 348-1116-1106-632-755-663-862-155-525 350 233-582-767-2073-2223s-2424-2446-2073-2201 150-83-450-726c-597-644-1200-1100-1340-1014-137 85-573-280-966-812-778-1052-4088-3960-3630-3190 153 259-326-144-1065-896s-1454-1300-1590-1215-646-270-1134-787-1010-861-1160-770c-153 96-435-123-628-484s-470-581-620-491c-147 93-350-44-450-303a500 500 0 00-640-296c-252 98-662-117-917-481-253-362-555-563-670-447s-210 35-210-180-140-304-310-200-585-90-929-432c-342-343-706-540-808-437s-186 22-186-178c0-440-1750-1396-2033-1113-110 110-200 24-200-191s-146-301-320-193c-176 109-320 20-320-194s-90-300-203-186-580-61-1037-384a7000 7000 0 00-3483-1271c-230-21-330-181-220-356 184-302-453-463-1357-346-220 29-400-98-400-281s-105-316-237-295a1200 1200 0 01-478-40 12000 12000 0 00-480-144c-130-37-670-245-1195-463s-1244-415-1595-437-720-158-820-302c-102-144-604-326-1118-405-1123-172-1487-257-3254-758-750-215-1490-311-1647-214-156 97-333 40-390-123-355-986-16857-1961-21960-1298m74960 51560c-614 430-2983 1945-5263 3366l-10048 6263a1218000 1218000 0 00-10208 6436c-5753 3685-14038 8907-22010 13872a1174000 1174000 0 00-10366 6530c-2105 1350-4545 2908-5423 3462l-1594 1006 9451 3c7494 4 9524 93 9804 430 243 293 354 3537 355 10289 0 10469 447 19445 1000 20110 185 225 310 880 277 1459-178 3225 147 2004 500-1876 1276-14035 7760-24323 18805-29838 7747-3870 17833-4581 25150-1776 2754 1057 3082 980 3252-755 58-587 124-1066 147-1066 88 0 395-1948 435-2761 23-465 150-780 283-698s234-326 226-907 63-1486 157-2013c730-4087 1133-15042 573-15602-130-132-270-981-307-1888-125-3041-180-3385-507-3183-207 128-254-220-132-974 127-780 78-1104-144-966q-334 205-120-870c167-846 135-974-152-600-290 380-328 265-187-557 107-620 45-1037-154-1037-187 0-244-278-130-637 110-351 63-638-108-638s-236-287-144-638c100-382 10-638-223-638-215 0-310-211-210-470 98-257 48-550-112-648-160-102-210-392-112-651 100-256 12-467-192-467s-290-134-190-297a360 360 0 00-125-490c-170-104-242-370-157-590 263-686-926-512-2095 307" fill="#fa8c1d"/><path d="M305982 89793c3 701 68 951 145 554s73-970-7-1276-142 20-138 722m-53988 6320c0 54 466 521 1036 1036l1037 937-937-1037c-873-966-1136-1183-1136-936m48630 3807-1262 1356 1356-1261c1260-1173 1502-1450 1261-1450-60 0-670 610-1360 1355M95610 132288c570 71 1504 71 2074 0s104-128-1036-128-1607 57-1037 128m32539 965c2324 54 6128 54 8453 0 2324-55 423-99-4227-99s-6551 44-4226 100m18979 0c2232 54 5892 54 8128 0s408-100-4066-100-6304 44-4067 100m-41865 817c0 55 467 522 1037 1037l1037 937-938-1037c-874-966-1137-1183-1137-937m17863 27077c-88 12053-51 21806 82 21673s205-9994 159-21914l-83-21673zm62998-19840c1042 1052 1966 1914 2054 1914s-693-862-1735-1914c-1040-1053-1964-1914-2052-1914s693 861 1734 1914m-35965 11721c2150 56 5666 56 7815 0 2150-55 390-100-3907-100s-6055 45-3906 100m43215 3271c0 614 66 865 146 558a2600 2600 0 00 0-1116c-80-307-146-56-146 558m6408 6060c0 1140 59 1607 130 1037s70-1503 0-2073-130-104-130 1036m-28702 638c0 1316 56 1854 125 1197 69-658 69-1735 0-2393s-125-119-125 1196m22302-478c3 702 69 950 145 554s73-971-6-1275c-80-305-143 19-140 720m130145 708c485 74 1203 72 1595-4s-4-136-882-133c-877 2-1198 64-713 137m10444 2466c0 88 430 383 957 655 527 272 957 423 957 335s-430-382-957-654-957-423-957-336m-134154 7194c-3 3947 44 5562 99 3588 57-1973 57-5203 0-7177s-101-360-101 3589m76579-1595c1040 1052 1965 1914 2053 1914s-693-862-1734-1914c-1042-1053-1966-1914-2054-1914s692 861 1734 1914m21352 1356-937 1036 1037-937c570-515 1039-981 1039-1036 0-247-264-30-1137 937m-149332 474c838 66 2130 65 2870-2 740-67 55-121-1524-120s-2185 56-1346 122m9559 0a35000 35000 0 00 3669 0c1009-63 183-115-1834-115s-2843 52-1835 115m62510 14278c0 527 110 1388 246 1914 337 1327 352 20 18-1595-222-1072-264-1123-263-320m34535 3350-13397 170 13298 75c8603 48 13369-38 13496-244 108-176 153-286 99-245-53 40-6126 150-13494 245m65710 0-13078 170 12979 74c8390 48 13049-38 13177-244 108-176 153-286 98-245s-5983 150-13176 245m-100180 8612c0 4298 44 6057 100 3908s54-5666 0-7815-100-391-100 3907m65700-1116c0 2807 49 3912 108 2457a73000 73000 0 00-1-5104c-60-1351-109-160-108 2647m65374-638c0 1579 53 2265 120 1524 65-740 66-2032 0-2870s-120-233-122 1346m-64154 4306c0 614 66 865 146 558s80-810 0-1116-147-56-147 558m23212 11962c595 614 1154 1116 1240 1116s-326-502-920-1116-1155-1117-1243-1117 330 492 924 1106m-234878-240c-80 133 7470 203 16785 156 13385-68 16993-1 17220 318 214 304 252 286 154-74-143-521-33838-917-34158-400m190840 959-1098 1196 1196-1100c656-603 1195-1142 1195-1195 0-244-270-14-1294 1099m64910-160-937 1037 1037-936c967-874 1184-1137 938-1137-55 0-522 467-1037 1037m-181082 1115c2324 55 6129 55 8452 0 2325-54 423-100-4226-100s-6550 46-4227 100m49325 3430c0 2106 52 2925 115 1822a39000 39000 0 00-3-3828c-63-1002-114-100-113 2006m20410 5104c0 1754 55 2430 120 1504a26000 26000 0 00 0-3190c-68-827-120-68-120 1686m11992-80c782 835 1464 1516 1515 1516 240 0-13-286-1421-1608l-1517-1422zm-42580 958-1906 1994 1995-1904c1096-1047 1994-1944 1994-1994 0-235-315 52-2084 1904m107825-718c685 702 1318 1276 1406 1276s-402-574-1087-1276c-685-700-1318-1274-1405-1274-90 0 400 574 1084 1275m45602 1356-1583 1675 1676-1583c920-870 1675-1624 1675-1675 0-238-296 27-1767 1583m-37787 4224c0 218 1953 1186 2100 1040 67-70-377-364-988-656-612-292-1113-465-1113-384m30622 799c-614 336-1000 617-860 625 338 17 2137-918 2137-1112 0-210-20-201-1277 486m-290634 2318c137 132 5548 204 12030 158l11781-84-12026-160c-6615-87-11917-50-11783 85m84972-165c7850 48 20698 48 28550 0 7850-47 1426-86-14275-86-15699 0-22124 40-14273 86m195216 938c307 80 810 80 1116 0 307-80 56-146-558-146s-866 65-559 146m-70325 334c927 65 2363 64 3190 0 828-67 70-120-1685-120s-2432 56-1505 120m66024-4c573 70 1435 70 1914-4s10-130-1042-130c-1053 2-1445 62-872 133m-203664 6382c838 66 2130 65 2870-2 740-66 55-120-1524-120s-2185 56-1346 122m-6707 313a7000 7000 0 00 1754 0c482-73 88-133-877-133s-1360 60-877 133m13880 3c575 70 1436 70 1916-4 480-72 10-130-1043-130s-1444 62-870 133m-17072 307c307 80 810 80 1116 0s56-146-558-146-863 66-556 146m-2870 320c306 80 808 80 1115 0s56-147-558-147-865 62-558 142m27276 6c397 76 970 73 1276-7 305-80-20-142-720-138s-952 70-556 145m-29665 320c397 76 970 73 1276-7 305-80-20-140-720-137s-952 69-556 145m82214 92c-860 220-876 244-160 250a6100 6100 0 00 1595-250c1072-343-86-343-1435 0m-4180 770c-96 250-113 860-40 1356 117 774 144 735 184-270 47-1077 141-1188 1088-1306l1037-130-1047-50c-648-30-1114 122-1220 400m151230 406c-703 438-990 693-640 566a6000 6000 0 01 1123-283c660-73 1270-476 1270-840 4-437-323-333-1749 557m-62439 15c747 69 1967 69 2712 2s137-122-1355-122-2100 55-1355 122m13404-3c572 70 1433 70 1912-4s10-130-1042-130-1445 62-870 133m-17710 316a7000 7000 0 00 1754 0c482-73 88-133-877-133s-1360 60-877 133m22010 0a7000 7000 0 00 1753 0c483-73 88-133-877-133s-1360 60-877 133m-26874 423c-690 153-202 182 1276 76 1316-95 2452-226 2525-290 232-207-2640-45-3800 214m30545-107c397 76 970 73 1276-7 305-80-20-142-720-138-702 3-952 68-555 145m3027 312c307 80 810 80 1116 0s56-146-558-146-865 66-558 146m36922 1535c-775 790-1337 1435-1250 1435 88 0 794-646 1568-1435 775-790 1337-1436 1250-1436-88 0-794 646-1568 1436m-75520-897c308 80 810 80 1118 0s55-146-560-146-866 65-560 145m43865 6c396 76 970 73 1275-7s-18-142-720-138-951 68-554 145m3190 320c396 75 970 72 1275-8s-16-140-720-137-950 68-553 145m2552 320c395 75 969 72 1274-8s-20-141-720-137c-703 3-953 68-556 145m-91646 1448-1261 1360 1354-1260c1260-1172 1503-1450 1260-1450-51 0-661 610-1354 1356m94673-1123c658 70 1734 70 2392 0 658-68 120-125-1196-125s-1854 57-1196 125m15630-12c307 80 810 80 1116 0s56-146-558-146-865 66-558 146m-8916 337c1544 58 3984 58 5423 0 1438-60 175-108-2807-107-2983 0-4160 48-2616 107m-69154 720c-813 348 25 348 1116 0 639-206 670-258 159-266-350-5-926 114-1276 265m-3510 957c-401 173-460 274-160 274 264 0 767-123 1118-274 402-173 460-274 160-274-263 0-765 123-1116 274m-46647 6290c485 73 1203 71 1595-5 393-76-4-136-880-133-878 2-1200 64-715 137m-100160 2240a7000 7000 0 00 1754 0c482-74 88-134-877-134s-1360 60-877 133m13240-3c398 76 972 73 1277-6 305-80-20-144-722-140-700 3-950 70-554 145m-49970 7553c-791 820-942 1141-620 1327 236 136 318 126 183-22-135-149 216-746 780-1327 564-582 954-1058 866-1058s-630 486-1207 1080m47254 752c1535 60 4047 60 5582 0s280-106-2790-106-4327 48-2792 106m-5900 307c394 76 1040 76 1434 0s72-138-718-138-1112 62-717 138m16590 0c397 77 970 74 1276-6s-20-142-720-139c-702 4-951 70-555 145m-20258 314c307 80 810 80 1116 0 307-80 56-146-558-146s-865 65-558 146m217120 497c-274 897-201 1197 210 856 525-435 596-935 134-935-176 0-330 36-344 80m-64330 2054c308 81 810 81 1117 1 307-79 56-145-558-145s-865 65-558 146m31423 5c397 77 970 74 1276-6s-20-142-722-139c-700 4-950 70-554 145m-24884 638c394 76 1040 76 1435 0s72-139-718-139-1113 63-718 140m19298-7c307 80 810 80 1116 0 308-80 57-145-557-145s-865 65-558 145m-11150 337c1368 60 3520 60 4785 0s145-110-2487-110c-2630 0-3665 50-2298 110m-105676 7578c438 250 940 455 1116 455s-40-205-478-455c-440-250-940-456-1117-456-175 0 40 205 480 456m93540 380c306 80 810 80 1116 0s56-147-558-147-866 66-560 146m22968 0c307 80 810 80 1116 0s56-146-558-146-865 66-558 146m-18657 325c397 76 970 73 1276-7s-20-142-720-140c-703 5-952 70-556 147m-79430 10844c396 76 1040 76 1436 0s72-138-717-138c-790 0-1113 62-718 138m3820 325c567 70 1570 70 2233 2s200-127-1030-128-1770 55-1203 126m6467 96c-1083 230-1077 233 233 154 743-45 1273 44 1178 197s-30 280 146 280c573 0 697-565 177-765-276-106-527-172-556-147s-554 150-1170 280m84050 630c-400 174-460 275-160 275 266 0 768-123 1119-274 402-173 460-274 160-274-265 0-767 123-1118 274m-46332 2772c306 80 810 80 1116 0s56-146-558-146-865 66-558 146m2394 325c397 76 970 73 1276-7s-20-142-720-140c-703 5-953 70-556 147m28226-6c307 80 810 80 1117 0s56-146-558-146-865 66-558 146m-25680 324a4600 4600 0 00 1438 0c395-76 72-138-718-138s-1112 62-718 138m22970 9c397 76 972 73 1277-7 304-80-20-142-722-140-702 5-950 70-554 147m-19617 322c485 73 1203 70 1595-4 392-76-4-136-882-134-877 3-1198 65-713 138m15472 2c573 70 1434 70 1914-3 484-75 14-132-1038-132s-1445 59-870 130m-8794 325c1177 60 3186 62 4466 0s317-110-2140-110c-2455-1-3502 49-2326 110M97110 303457c-93 238-117 1496-56 2795l115 2362 63-2630 64-2633h21027l110 2470 113 2473-20-2550-18-2553-10615-84c-8703-70-10645-6-10780 350m39830-188c1720 58 4448 58 6062 0s207-105-3127-105c-3333 0-4653 48-2934 105m44492-2c928 64 2363 64 3190-2 828-65 70-118-1684-117s-2432 54-1505 120m24317 322c3 383 80 437 250 170 157-246 1387-423 3424-490l3180-105-3430-67c-3080-60-3429-10-3424 492m23378-320c3051 100 3122 120 2934 810-168 615-148 634 160 145 621-992 56-1196-3132-1127l-3090 67zm23426 0c2500 54 6590 54 9090 0s455-98-4545-98-7045 44-4545 98m30276-26c-117 117-212 6146-212 13397v13185h8912c4902 0 8979-108 9060-240 82-130-3856-200-8752-150l-8901 90v-26152l2950-105 2950-105-2892-66c-1593-37-2993 30-3110 146m-143046 8480-67 3747 2630-64 2633-64-2462-108-2461-110-101-3574-102-3576zm-35002 7256 7 10684 3110 90 3110 93-76-10777-76-10778-88 10607-90 10607h-5723l-91-10606-91-10607zm148950-7817 20 2552 1357 30 1358 33-1266-130-1267-128-114-2454-112-2455zm-99255 480c0 788 62 1110 138 716a4500 4500 0 00 0-1435c-76-395-138-72-138 718m-6074 0c0 614 67 865 147 558s80-806 0-1113-146-56-146 558m111499 2150c927 64 2362 63 3190-2 827-66 69-120-1685-118s-2432 55-1505 120m-107606 3670-937 1038 1036-937c967-873 1184-1137 937-1137-55 0-521 467-1036 1037m101347 3970c-30 1610 56 2997 188 3080 130 80 199-808 150-1976-152-3700-286-4134-338-1105m-72380-2218c1009 63 2659 63 3668 0s184-115-1834-115c-2017 0-2843 52-1834 115m-41477 5574-70 4693-2951 105-2950 105 2958 66c3558 80 3307 493 3180-5210l-100-4450zm116118-155c659 70 1736 70 2393 0 658-70 120-125-1196-125s-1854 56-1196 125m8137-6c397 76 970 73 1276-7s-20-142-722-140c-701 5-951 70-554 147m28143-10c4272 230 8540 243 8405 23-82-130-2401-212-5154-180s-4216 104-3251 156m-136720 4510c158 253-781 387-3220 460l-3440 102 3588 68c3329 63 4217-147 3220-760-220-140-280-88-143 130m34410 60c142 527 5845 898 6334 410 140-145-1125-210-2810-155-2270 77-3138-5-3358-318-234-332-270-320-167 57m25567 70c60 300 993 408 3538 408s3478-107 3538-407c44-223 8-260-82-80-95 190-1525 326-3458 326s-3363-136-3458-327c-90-180-125-144-80 80m-44547 483c920 64 2428 64 3350 0 920-65 167-117-1675-117s-2596 52-1675 117m81499 2c2588 53 6823 53 9410 0 2588-54 470-98-4705-98s-7293 44-4706 97" fill="#99abaf"/><path d="m142404 98644-937 1037 1037-937c966-873 1183-1136 937-1136-55 0-522 466-1037 1036m113881 2520 1154 1481-1128 697c-1383 855-1511 1225-146 424 1615-948 1634-1140 253-2664l-1287-1420zm-4212 4774c-1087 696-1440 1164-478 636 732-403 1878-1289 1675-1295-88-3-626 294-1197 660m-63735 1740c-340 276-416 397-168 268 248-128 894-340 1435-469 906-217 919-238 169-268-450-18-1095 193-1436 470m59589 810c-1088 696-1440 1164-480 636 733-403 1880-1289 1676-1295-88-3-626 293-1196 660m-61882 462c-746 446-1356 887-1356 980 0 171 2152-1050 2695-1530 549-486 38-276-1340 550m11404 138c439 140 1156 253 1595 250 716-6 700-30-160-250-1350-343-2507-343-1435 0m3190 638c439 140 1084 255 1435 255 506 0 472-53-160-255-438-140-1084-256-1435-256-505 0-471 54 160 256m44737 356c-1087 696-1440 1163-480 635 733-402 1880-1288 1676-1295-88-2-626 294-1196 660m-62042 464c-1192 647-1120 917 80 296 526-272 957-563 957-646 0-205-34-194-1037 350m20335-182c1350 343 2508 343 1436 0a6100 6100 0 00-1595-250c-728 6-711 31 148 250m5900 1276a6200 6200 0 00 1597 250c717-6 700-32-160-250-1350-344-2507-344-1435 0m32297 674c-1087 697-1440 1164-478 636 730-402 1878-1289 1674-1295-88-2-626 294-1196 660m-62680 671c-1454 844-1462 920-160 1642l1039 574-798-680c-756-645-767-700-211-1063 1934-1267 2018-1566 132-473m36283-60c1229 317 2520 572 2870 568 352-3-437-273-1753-598-1316-326-2608-582-2871-570s528 274 1756 592m23599 1150c-1627 1079-2201 1647-930 922 1119-638 2612-1748 2366-1758-92-4-738 372-1437 835m-19292-204c438 140 1084 255 1435 255 505 0 472-53-160-255-438-140-1084-256-1435-256-505 0-472 53 160 256m-88532 986c-280 542-451 1042-382 1112 70 70 365-375 657-987 656-1376 428-1480-272-126m97463 928a6100 6100 0 00 1595 250c716-4 700-30-160-250-1350-342-2507-342-1435 0m7466 138c-358 250-1215 514-1905 585l-1255 128 1276 47c837 30 1549-168 2073-578 920-720 776-860-190-182m-50847 2240c0 88 430 383 957 655s957 423 957 335-430-382-956-654-957-424-957-337m8612 5104c0 88 430 382 957 654 527 274 957 425 957 337s-430-382-957-655c-526-272-957-423-957-335m66428 4997c-1087 695-1440 1162-480 634 733-401 1880-1290 1676-1294-88-2-626 294-1196 660m-2552 1594c-1087 697-1440 1164-478 636 730-401 1878-1290 1674-1294-86-3-624 294-1194 660m-49578 3667c89 763-56 1328-465 1812l-595 704 718-611c710-602 1023-2514 465-2860-140-85-194 344-123 953m43836-160c-1087 697-1440 1165-478 637 732-402 1878-1290 1675-1295-88-3-626 294-1197 660m-49930 5838c-1883 1303-2331 1760-942 960 1070-617 2910-2033 2627-2022-88 3-846 481-1685 1062m41318-416c-1087 694-1440 1162-480 634 733-403 1880-1289 1676-1295-88-4-626 293-1196 660m-4711 3036c-1626 1080-2200 1650-930 923 1120-638 2613-1748 2367-1758-91-3-737 373-1436 836m-6772 4298c-1088 696-1440 1164-480 636 728-402 1876-1289 1672-1295-88-5-626 292-1196 660m-9496 5906c-1627 1080-2201 1650-930 924 1119-639 2612-1748 2366-1759-91-4-737 372-1436 835m-3263 2066c-1088 696-1440 1164-480 636 733-403 1879-1289 1676-1295-88-4-626 293-1196 660m-2552 1593c-1088 696-1440 1163-480 635 733-402 1880-1288 1676-1295-88-5-626 291-1196 660m-2552 1591c-1087 696-1440 1163-480 635 733-402 1880-1289 1676-1295-86-2-624 294-1194 660m-2552 1594c-1087 697-1440 1164-478 636 730-402 1878-1289 1674-1295-93-2-631 294-1201 660m-5173 3335c-2855 1866-3558 2406-2242 1722 1027-534 5103-3239 5103-3387 0-197-110-133-2861 1665m44648 1071c-614 116 1108 158 3827 93 2720-65 5088-167 5264-228 594-204-7967-77-9091 136m9968 243c307 80 809 80 1116 0s56-146-558-146-865 65-558 145m3576 741c1045 334 1950 557 2010 497 160-160-2821-1142-3410-1120-276 10 354 291 1400 624m-17850-4c-811 350 27 350 1118 0 640-205 672-257 159-264-350-5-925 115-1276 265m-44960 794c-1765 1085-1593 1107 9075 1200l9410 80 170 5422 174 5423 68-5279c48-3760-42-5389-315-5662-280-280-2910-384-9810-388l-9425-6 1037-663c570-366 1037-722 1037-793 0-195-70-162-1420 667m41452 465c-702 332-1133 605-957 606 435 3 2952-1176 2552-1195-176-8-894 257-1595 590m24402-143c438 250 1012 455 1276 454 263 0-5-210-595-467-1360-589-1723-583-681 13m-28673 2320c-1113 657-2545 1670-3182 2246-1111 1007-1093 1002 436-122a39000 39000 0 01 3270-2118c1430-807 1953-1203 1587-1203-42 0-992 538-2105 1196m-6425 5104-1744 1834 1835-1743c1704-1620 1980-1925 1743-1925-50 1-875 826-1834 1835m-4255 5263c-1195 1873-2435 4230-2428 4612 2 138 587-818 1300-2126s1582-2778 1930-3269c350-490 553-892 450-892s-664 753-1252 1674m-7728 3907c0 2631 50 3665 110 2298a63000 63000 0 00-1-4785c-60-1264-108-145-108 2487m3245 6083c-120 468-153 912-78 987s233-246 350-714 152-910 77-986-233 246-350 713m-1062 6038c5 701 70 950 146 553s74-970-6-1276-143 21-140 723m-956 3827c4 701 69 951 145 554s74-970-6-1276-143 20-140 722m668 1276c0 1403 57 1938 125 1187 67-750 66-1898-3-2552-68-653-123-39-122 1365m34420 114573c310 81 810 81 1119 0 307-80 56-145-558-145s-865 65-558 145" fill="#ab6f2c"/></g></svg>
